<mxfile host="app.diagrams.net" modified="2023-05-11T19:22:45.728Z" agent="Mozilla/5.0 (Windows NT 10.0; Win64; x64; rv:109.0) Gecko/20100101 Firefox/112.0" etag="-1QB_CRj7qX0FxF1cp9z" version="21.2.9" type="device">
  <diagram name="Page-1" id="10a91c8b-09ff-31b1-d368-03940ed4cc9e">
    <mxGraphModel dx="5980" dy="2640" grid="1" gridSize="10" guides="1" tooltips="1" connect="1" arrows="1" fold="1" page="0" pageScale="1" pageWidth="1100" pageHeight="850" background="none" math="0" shadow="0">
      <root>
        <mxCell id="0" />
        <mxCell id="1" parent="0" />
        <mxCell id="VH3I_mRAAY6PjUP067Ii-4" value="" style="edgeStyle=orthogonalEdgeStyle;rounded=0;orthogonalLoop=1;jettySize=auto;html=1;" edge="1" parent="1" source="VH3I_mRAAY6PjUP067Ii-1" target="VH3I_mRAAY6PjUP067Ii-3">
          <mxGeometry relative="1" as="geometry" />
        </mxCell>
        <mxCell id="VH3I_mRAAY6PjUP067Ii-1" value="&lt;div&gt;Axioma&lt;/div&gt;" style="rounded=1;whiteSpace=wrap;html=1;fillColor=#d5e8d4;strokeColor=#82b366;" vertex="1" parent="1">
          <mxGeometry x="530" y="150" width="120" height="60" as="geometry" />
        </mxCell>
        <mxCell id="VH3I_mRAAY6PjUP067Ii-8" value="" style="edgeStyle=orthogonalEdgeStyle;rounded=0;orthogonalLoop=1;jettySize=auto;html=1;" edge="1" parent="1" source="VH3I_mRAAY6PjUP067Ii-3" target="VH3I_mRAAY6PjUP067Ii-7">
          <mxGeometry relative="1" as="geometry" />
        </mxCell>
        <mxCell id="VH3I_mRAAY6PjUP067Ii-3" value="Program" style="rounded=1;whiteSpace=wrap;html=1;fillColor=#d5e8d4;strokeColor=#82b366;" vertex="1" parent="1">
          <mxGeometry x="530" y="290" width="120" height="60" as="geometry" />
        </mxCell>
        <mxCell id="VH3I_mRAAY6PjUP067Ii-5" value="Globales" style="rounded=1;whiteSpace=wrap;html=1;fillColor=#d5e8d4;strokeColor=#82b366;" vertex="1" parent="1">
          <mxGeometry x="410" y="410" width="120" height="60" as="geometry" />
        </mxCell>
        <mxCell id="VH3I_mRAAY6PjUP067Ii-7" value="Funciones" style="rounded=1;whiteSpace=wrap;html=1;fillColor=#d5e8d4;strokeColor=#82b366;" vertex="1" parent="1">
          <mxGeometry x="530" y="410" width="120" height="60" as="geometry" />
        </mxCell>
        <mxCell id="VH3I_mRAAY6PjUP067Ii-9" value="&lt;div&gt;Main&lt;/div&gt;" style="rounded=1;whiteSpace=wrap;html=1;fillColor=#d5e8d4;strokeColor=#82b366;" vertex="1" parent="1">
          <mxGeometry x="650" y="410" width="120" height="60" as="geometry" />
        </mxCell>
        <mxCell id="VH3I_mRAAY6PjUP067Ii-28" value="" style="edgeStyle=orthogonalEdgeStyle;rounded=0;orthogonalLoop=1;jettySize=auto;html=1;" edge="1" parent="1" source="VH3I_mRAAY6PjUP067Ii-26" target="VH3I_mRAAY6PjUP067Ii-27">
          <mxGeometry relative="1" as="geometry">
            <Array as="points">
              <mxPoint x="-460" y="590" />
              <mxPoint x="-620" y="590" />
            </Array>
          </mxGeometry>
        </mxCell>
        <mxCell id="VH3I_mRAAY6PjUP067Ii-30" value="" style="edgeStyle=orthogonalEdgeStyle;rounded=0;orthogonalLoop=1;jettySize=auto;html=1;entryX=0.5;entryY=0;entryDx=0;entryDy=0;" edge="1" parent="1" source="VH3I_mRAAY6PjUP067Ii-26" target="VH3I_mRAAY6PjUP067Ii-33">
          <mxGeometry relative="1" as="geometry">
            <mxPoint x="-340" y="640" as="targetPoint" />
            <Array as="points">
              <mxPoint x="-460" y="590" />
              <mxPoint x="-320" y="590" />
            </Array>
          </mxGeometry>
        </mxCell>
        <mxCell id="VH3I_mRAAY6PjUP067Ii-26" value="Globales" style="rounded=1;whiteSpace=wrap;html=1;fillColor=#d5e8d4;strokeColor=#82b366;" vertex="1" parent="1">
          <mxGeometry x="-520" y="480" width="120" height="60" as="geometry" />
        </mxCell>
        <mxCell id="VH3I_mRAAY6PjUP067Ii-27" value="Lambda" style="rounded=1;whiteSpace=wrap;html=1;shape=hexagon;perimeter=hexagonPerimeter2;" vertex="1" parent="1">
          <mxGeometry x="-680" y="640" width="120" height="60" as="geometry" />
        </mxCell>
        <mxCell id="VH3I_mRAAY6PjUP067Ii-32" value="&lt;div&gt;declaracion_global&lt;/div&gt;" style="rounded=1;whiteSpace=wrap;html=1;container=1;fillColor=#d5e8d4;strokeColor=#82b366;" vertex="1" parent="1">
          <mxGeometry x="-500" y="640" width="120" height="60" as="geometry" />
        </mxCell>
        <mxCell id="VH3I_mRAAY6PjUP067Ii-33" value="&lt;b&gt;;&lt;/b&gt;" style="whiteSpace=wrap;html=1;rounded=0;shape=hexagon;perimeter=hexagonPerimeter2;" vertex="1" parent="1">
          <mxGeometry x="-380" y="640" width="120" height="60" as="geometry" />
        </mxCell>
        <mxCell id="VH3I_mRAAY6PjUP067Ii-34" value="r_globales" style="whiteSpace=wrap;html=1;rounded=1;fillColor=#d5e8d4;strokeColor=#82b366;" vertex="1" parent="1">
          <mxGeometry x="-260" y="640" width="120" height="60" as="geometry" />
        </mxCell>
        <mxCell id="VH3I_mRAAY6PjUP067Ii-35" value="" style="edgeStyle=orthogonalEdgeStyle;rounded=0;orthogonalLoop=1;jettySize=auto;html=1;exitX=0.5;exitY=1;exitDx=0;exitDy=0;" edge="1" parent="1" source="VH3I_mRAAY6PjUP067Ii-34" target="VH3I_mRAAY6PjUP067Ii-38">
          <mxGeometry relative="1" as="geometry">
            <Array as="points">
              <mxPoint x="-200" y="760" />
              <mxPoint x="-310" y="760" />
            </Array>
            <mxPoint x="-150" y="840" as="sourcePoint" />
          </mxGeometry>
        </mxCell>
        <mxCell id="VH3I_mRAAY6PjUP067Ii-36" value="" style="edgeStyle=orthogonalEdgeStyle;rounded=0;orthogonalLoop=1;jettySize=auto;html=1;entryX=0.5;entryY=0;entryDx=0;entryDy=0;exitX=0.5;exitY=1;exitDx=0;exitDy=0;" edge="1" parent="1" source="VH3I_mRAAY6PjUP067Ii-34" target="VH3I_mRAAY6PjUP067Ii-40">
          <mxGeometry relative="1" as="geometry">
            <mxPoint x="-30" y="940" as="targetPoint" />
            <Array as="points">
              <mxPoint x="-200" y="760" />
              <mxPoint x="-10" y="760" />
            </Array>
            <mxPoint x="-140" y="850" as="sourcePoint" />
          </mxGeometry>
        </mxCell>
        <mxCell id="VH3I_mRAAY6PjUP067Ii-38" value="Lambda" style="rounded=1;whiteSpace=wrap;html=1;shape=hexagon;perimeter=hexagonPerimeter2;" vertex="1" parent="1">
          <mxGeometry x="-370" y="850" width="120" height="60" as="geometry" />
        </mxCell>
        <mxCell id="VH3I_mRAAY6PjUP067Ii-39" value="&lt;div&gt;declaracion_global&lt;/div&gt;" style="rounded=1;whiteSpace=wrap;html=1;container=1;fillColor=#d5e8d4;strokeColor=#82b366;" vertex="1" parent="1">
          <mxGeometry x="-190" y="850" width="120" height="60" as="geometry" />
        </mxCell>
        <mxCell id="VH3I_mRAAY6PjUP067Ii-40" value="&lt;b&gt;;&lt;/b&gt;" style="whiteSpace=wrap;html=1;rounded=0;shape=hexagon;perimeter=hexagonPerimeter2;" vertex="1" parent="1">
          <mxGeometry x="-70" y="850" width="120" height="60" as="geometry" />
        </mxCell>
        <mxCell id="VH3I_mRAAY6PjUP067Ii-41" value="r_globales" style="whiteSpace=wrap;html=1;rounded=1;fillColor=#d5e8d4;strokeColor=#82b366;" vertex="1" parent="1">
          <mxGeometry x="50" y="850" width="120" height="60" as="geometry" />
        </mxCell>
        <mxCell id="VH3I_mRAAY6PjUP067Ii-74" style="edgeStyle=orthogonalEdgeStyle;rounded=0;orthogonalLoop=1;jettySize=auto;html=1;exitX=1;exitY=0.5;exitDx=0;exitDy=0;entryX=0;entryY=0.5;entryDx=0;entryDy=0;" edge="1" parent="1" source="VH3I_mRAAY6PjUP067Ii-45" target="VH3I_mRAAY6PjUP067Ii-72">
          <mxGeometry relative="1" as="geometry" />
        </mxCell>
        <mxCell id="VH3I_mRAAY6PjUP067Ii-75" style="edgeStyle=orthogonalEdgeStyle;rounded=0;orthogonalLoop=1;jettySize=auto;html=1;exitX=1;exitY=0.5;exitDx=0;exitDy=0;entryX=0;entryY=0.5;entryDx=0;entryDy=0;" edge="1" parent="1" source="VH3I_mRAAY6PjUP067Ii-45" target="VH3I_mRAAY6PjUP067Ii-71">
          <mxGeometry relative="1" as="geometry" />
        </mxCell>
        <mxCell id="VH3I_mRAAY6PjUP067Ii-76" style="edgeStyle=orthogonalEdgeStyle;rounded=0;orthogonalLoop=1;jettySize=auto;html=1;exitX=1;exitY=0.5;exitDx=0;exitDy=0;entryX=0;entryY=0.5;entryDx=0;entryDy=0;" edge="1" parent="1" source="VH3I_mRAAY6PjUP067Ii-45" target="VH3I_mRAAY6PjUP067Ii-73">
          <mxGeometry relative="1" as="geometry" />
        </mxCell>
        <mxCell id="VH3I_mRAAY6PjUP067Ii-45" value="&lt;div&gt;declaracion_global&lt;/div&gt;" style="rounded=1;whiteSpace=wrap;html=1;fillColor=#d5e8d4;strokeColor=#82b366;" vertex="1" parent="1">
          <mxGeometry x="-780" y="1100" width="120" height="60" as="geometry" />
        </mxCell>
        <mxCell id="VH3I_mRAAY6PjUP067Ii-48" value="IDENTIF" style="whiteSpace=wrap;html=1;rounded=1;shape=hexagon;perimeter=hexagonPerimeter2;" vertex="1" parent="1">
          <mxGeometry x="-420" y="1100" width="120" height="60" as="geometry" />
        </mxCell>
        <mxCell id="VH3I_mRAAY6PjUP067Ii-49" value="&lt;b&gt;=&lt;/b&gt;" style="whiteSpace=wrap;html=1;rounded=1;shape=hexagon;perimeter=hexagonPerimeter2;" vertex="1" parent="1">
          <mxGeometry x="-300" y="1100" width="120" height="60" as="geometry" />
        </mxCell>
        <mxCell id="VH3I_mRAAY6PjUP067Ii-52" value="expresion" style="whiteSpace=wrap;html=1;rounded=1;shape=label;perimeter=rectanglePerimeter;" vertex="1" parent="1">
          <mxGeometry x="-180" y="1100" width="120" height="60" as="geometry" />
        </mxCell>
        <mxCell id="VH3I_mRAAY6PjUP067Ii-53" value="r_declaracion" style="whiteSpace=wrap;html=1;rounded=1;fillColor=#d5e8d4;strokeColor=#82b366;" vertex="1" parent="1">
          <mxGeometry x="-60" y="1100" width="120" height="60" as="geometry" />
        </mxCell>
        <mxCell id="VH3I_mRAAY6PjUP067Ii-55" value="IDENTIF" style="whiteSpace=wrap;html=1;rounded=1;shape=hexagon;perimeter=hexagonPerimeter2;" vertex="1" parent="1">
          <mxGeometry x="-420" y="1200" width="120" height="60" as="geometry" />
        </mxCell>
        <mxCell id="VH3I_mRAAY6PjUP067Ii-56" value="r_declaracion" style="whiteSpace=wrap;html=1;rounded=1;fillColor=#d5e8d4;strokeColor=#82b366;" vertex="1" parent="1">
          <mxGeometry x="-300" y="1200" width="120" height="60" as="geometry" />
        </mxCell>
        <mxCell id="VH3I_mRAAY6PjUP067Ii-58" value="IDENTIF" style="whiteSpace=wrap;html=1;rounded=1;shape=hexagon;perimeter=hexagonPerimeter2;" vertex="1" parent="1">
          <mxGeometry x="-420" y="990" width="120" height="60" as="geometry" />
        </mxCell>
        <mxCell id="VH3I_mRAAY6PjUP067Ii-59" value="&lt;b&gt;[&lt;/b&gt;" style="whiteSpace=wrap;html=1;rounded=1;shape=hexagon;perimeter=hexagonPerimeter2;" vertex="1" parent="1">
          <mxGeometry x="-300" y="990" width="120" height="60" as="geometry" />
        </mxCell>
        <mxCell id="VH3I_mRAAY6PjUP067Ii-60" value="expresion" style="whiteSpace=wrap;html=1;rounded=1;shape=label;perimeter=rectanglePerimeter;" vertex="1" parent="1">
          <mxGeometry x="-180" y="990" width="120" height="60" as="geometry" />
        </mxCell>
        <mxCell id="VH3I_mRAAY6PjUP067Ii-61" value="&lt;b&gt;]&lt;/b&gt;" style="whiteSpace=wrap;html=1;rounded=1;shape=hexagon;perimeter=hexagonPerimeter2;" vertex="1" parent="1">
          <mxGeometry x="-60" y="990" width="120" height="60" as="geometry" />
        </mxCell>
        <mxCell id="VH3I_mRAAY6PjUP067Ii-63" value="r_declaracion" style="whiteSpace=wrap;html=1;rounded=1;fillColor=#d5e8d4;strokeColor=#82b366;" vertex="1" parent="1">
          <mxGeometry x="60" y="990" width="120" height="60" as="geometry" />
        </mxCell>
        <mxCell id="VH3I_mRAAY6PjUP067Ii-71" value="INTEGER" style="whiteSpace=wrap;html=1;rounded=1;shape=hexagon;perimeter=hexagonPerimeter2;" vertex="1" parent="1">
          <mxGeometry x="-540" y="1200" width="120" height="60" as="geometry" />
        </mxCell>
        <mxCell id="VH3I_mRAAY6PjUP067Ii-72" value="INTEGER" style="whiteSpace=wrap;html=1;rounded=1;shape=hexagon;perimeter=hexagonPerimeter2;" vertex="1" parent="1">
          <mxGeometry x="-540" y="1100" width="120" height="60" as="geometry" />
        </mxCell>
        <mxCell id="VH3I_mRAAY6PjUP067Ii-73" value="INTEGER" style="whiteSpace=wrap;html=1;rounded=1;shape=hexagon;perimeter=hexagonPerimeter2;" vertex="1" parent="1">
          <mxGeometry x="-540" y="990" width="120" height="60" as="geometry" />
        </mxCell>
        <mxCell id="VH3I_mRAAY6PjUP067Ii-77" value="" style="edgeStyle=orthogonalEdgeStyle;rounded=0;orthogonalLoop=1;jettySize=auto;html=1;" edge="1" parent="1" source="VH3I_mRAAY6PjUP067Ii-79" target="VH3I_mRAAY6PjUP067Ii-80">
          <mxGeometry relative="1" as="geometry">
            <Array as="points">
              <mxPoint x="590" y="640" />
              <mxPoint x="430" y="640" />
            </Array>
          </mxGeometry>
        </mxCell>
        <mxCell id="VH3I_mRAAY6PjUP067Ii-128" style="edgeStyle=orthogonalEdgeStyle;rounded=0;orthogonalLoop=1;jettySize=auto;html=1;exitX=0.5;exitY=1;exitDx=0;exitDy=0;entryX=0.5;entryY=0;entryDx=0;entryDy=0;" edge="1" parent="1" source="VH3I_mRAAY6PjUP067Ii-79" target="VH3I_mRAAY6PjUP067Ii-92">
          <mxGeometry relative="1" as="geometry" />
        </mxCell>
        <mxCell id="VH3I_mRAAY6PjUP067Ii-79" value="Funciones" style="rounded=1;whiteSpace=wrap;html=1;" vertex="1" parent="1">
          <mxGeometry x="530" y="530" width="120" height="60" as="geometry" />
        </mxCell>
        <mxCell id="VH3I_mRAAY6PjUP067Ii-80" value="Lambda" style="rounded=1;whiteSpace=wrap;html=1;shape=hexagon;perimeter=hexagonPerimeter2;" vertex="1" parent="1">
          <mxGeometry x="370" y="690" width="120" height="60" as="geometry" />
        </mxCell>
        <mxCell id="VH3I_mRAAY6PjUP067Ii-90" value="IDENTIF" style="whiteSpace=wrap;html=1;rounded=1;shape=hexagon;perimeter=hexagonPerimeter2;" vertex="1" parent="1">
          <mxGeometry x="540" y="690" width="120" height="60" as="geometry" />
        </mxCell>
        <mxCell id="VH3I_mRAAY6PjUP067Ii-91" value="&lt;b&gt;(&lt;/b&gt;" style="whiteSpace=wrap;html=1;rounded=1;shape=hexagon;perimeter=hexagonPerimeter2;" vertex="1" parent="1">
          <mxGeometry x="660" y="690" width="120" height="60" as="geometry" />
        </mxCell>
        <mxCell id="VH3I_mRAAY6PjUP067Ii-92" value="args" style="whiteSpace=wrap;html=1;rounded=1;shape=label;perimeter=rectanglePerimeter;fillColor=#d5e8d4;strokeColor=#82b366;" vertex="1" parent="1">
          <mxGeometry x="780" y="690" width="120" height="60" as="geometry" />
        </mxCell>
        <mxCell id="VH3I_mRAAY6PjUP067Ii-93" value="&lt;b&gt;)&lt;/b&gt;" style="whiteSpace=wrap;html=1;rounded=1;shape=hexagon;perimeter=hexagonPerimeter2;" vertex="1" parent="1">
          <mxGeometry x="900" y="690" width="120" height="60" as="geometry" />
        </mxCell>
        <mxCell id="VH3I_mRAAY6PjUP067Ii-94" value="lets" style="whiteSpace=wrap;html=1;rounded=1;fillColor=#d5e8d4;strokeColor=#82b366;" vertex="1" parent="1">
          <mxGeometry x="1020" y="690" width="120" height="60" as="geometry" />
        </mxCell>
        <mxCell id="VH3I_mRAAY6PjUP067Ii-102" style="edgeStyle=orthogonalEdgeStyle;rounded=0;orthogonalLoop=1;jettySize=auto;html=1;exitX=0.5;exitY=1;exitDx=0;exitDy=0;entryX=0.5;entryY=0;entryDx=0;entryDy=0;" edge="1" parent="1" source="VH3I_mRAAY6PjUP067Ii-97" target="VH3I_mRAAY6PjUP067Ii-98">
          <mxGeometry relative="1" as="geometry" />
        </mxCell>
        <mxCell id="VH3I_mRAAY6PjUP067Ii-129" style="edgeStyle=orthogonalEdgeStyle;rounded=0;orthogonalLoop=1;jettySize=auto;html=1;exitX=0.5;exitY=1;exitDx=0;exitDy=0;entryX=0.5;entryY=0;entryDx=0;entryDy=0;" edge="1" parent="1" source="VH3I_mRAAY6PjUP067Ii-97" target="VH3I_mRAAY6PjUP067Ii-106">
          <mxGeometry relative="1" as="geometry" />
        </mxCell>
        <mxCell id="VH3I_mRAAY6PjUP067Ii-97" value="r_funciones" style="whiteSpace=wrap;html=1;rounded=1;fillColor=#d5e8d4;strokeColor=#82b366;" vertex="1" parent="1">
          <mxGeometry x="1140" y="690" width="120" height="60" as="geometry" />
        </mxCell>
        <mxCell id="VH3I_mRAAY6PjUP067Ii-98" value="Lambda" style="rounded=1;whiteSpace=wrap;html=1;shape=hexagon;perimeter=hexagonPerimeter2;" vertex="1" parent="1">
          <mxGeometry x="820" y="850" width="120" height="60" as="geometry" />
        </mxCell>
        <mxCell id="VH3I_mRAAY6PjUP067Ii-104" value="IDENTIF" style="whiteSpace=wrap;html=1;rounded=1;shape=hexagon;perimeter=hexagonPerimeter2;" vertex="1" parent="1">
          <mxGeometry x="1070" y="850" width="120" height="60" as="geometry" />
        </mxCell>
        <mxCell id="VH3I_mRAAY6PjUP067Ii-105" value="&lt;b&gt;(&lt;/b&gt;" style="whiteSpace=wrap;html=1;rounded=1;shape=hexagon;perimeter=hexagonPerimeter2;" vertex="1" parent="1">
          <mxGeometry x="1190" y="850" width="120" height="60" as="geometry" />
        </mxCell>
        <mxCell id="VH3I_mRAAY6PjUP067Ii-106" value="args" style="whiteSpace=wrap;html=1;rounded=1;shape=label;perimeter=rectanglePerimeter;fillColor=#d5e8d4;strokeColor=#82b366;" vertex="1" parent="1">
          <mxGeometry x="1310" y="850" width="120" height="60" as="geometry" />
        </mxCell>
        <mxCell id="VH3I_mRAAY6PjUP067Ii-107" value="&lt;b&gt;)&lt;/b&gt;" style="whiteSpace=wrap;html=1;rounded=1;shape=hexagon;perimeter=hexagonPerimeter2;" vertex="1" parent="1">
          <mxGeometry x="1430" y="850" width="120" height="60" as="geometry" />
        </mxCell>
        <mxCell id="VH3I_mRAAY6PjUP067Ii-108" value="lets" style="whiteSpace=wrap;html=1;rounded=1;fillColor=#d5e8d4;strokeColor=#82b366;" vertex="1" parent="1">
          <mxGeometry x="1550" y="850" width="120" height="60" as="geometry" />
        </mxCell>
        <mxCell id="VH3I_mRAAY6PjUP067Ii-110" value="r_funciones" style="whiteSpace=wrap;html=1;rounded=1;fillColor=#d5e8d4;strokeColor=#82b366;" vertex="1" parent="1">
          <mxGeometry x="1670" y="850" width="120" height="60" as="geometry" />
        </mxCell>
        <mxCell id="VH3I_mRAAY6PjUP067Ii-112" value="args" style="whiteSpace=wrap;html=1;rounded=1;fillColor=#d5e8d4;strokeColor=#82b366;" vertex="1" parent="1">
          <mxGeometry x="530" y="1000" width="120" height="60" as="geometry" />
        </mxCell>
        <mxCell id="VH3I_mRAAY6PjUP067Ii-113" value="" style="edgeStyle=orthogonalEdgeStyle;rounded=0;orthogonalLoop=1;jettySize=auto;html=1;exitX=0.5;exitY=1;exitDx=0;exitDy=0;" edge="1" parent="1" source="VH3I_mRAAY6PjUP067Ii-112" target="VH3I_mRAAY6PjUP067Ii-115">
          <mxGeometry relative="1" as="geometry">
            <Array as="points">
              <mxPoint x="590" y="1120" />
              <mxPoint x="480" y="1120" />
            </Array>
            <mxPoint x="640" y="1200" as="sourcePoint" />
          </mxGeometry>
        </mxCell>
        <mxCell id="VH3I_mRAAY6PjUP067Ii-114" value="" style="edgeStyle=orthogonalEdgeStyle;rounded=0;orthogonalLoop=1;jettySize=auto;html=1;entryX=0.5;entryY=0;entryDx=0;entryDy=0;exitX=0.5;exitY=1;exitDx=0;exitDy=0;" edge="1" parent="1" source="VH3I_mRAAY6PjUP067Ii-112" target="VH3I_mRAAY6PjUP067Ii-117">
          <mxGeometry relative="1" as="geometry">
            <mxPoint x="760" y="1300" as="targetPoint" />
            <Array as="points">
              <mxPoint x="590" y="1120" />
              <mxPoint x="780" y="1120" />
            </Array>
            <mxPoint x="650" y="1210" as="sourcePoint" />
          </mxGeometry>
        </mxCell>
        <mxCell id="VH3I_mRAAY6PjUP067Ii-115" value="Lambda" style="rounded=1;whiteSpace=wrap;html=1;shape=hexagon;perimeter=hexagonPerimeter2;" vertex="1" parent="1">
          <mxGeometry x="420" y="1210" width="120" height="60" as="geometry" />
        </mxCell>
        <mxCell id="VH3I_mRAAY6PjUP067Ii-117" value="&lt;b&gt;IDENTIF&lt;/b&gt;" style="whiteSpace=wrap;html=1;rounded=0;shape=hexagon;perimeter=hexagonPerimeter2;" vertex="1" parent="1">
          <mxGeometry x="720" y="1210" width="120" height="60" as="geometry" />
        </mxCell>
        <mxCell id="VH3I_mRAAY6PjUP067Ii-126" style="edgeStyle=orthogonalEdgeStyle;rounded=0;orthogonalLoop=1;jettySize=auto;html=1;exitX=0.5;exitY=1;exitDx=0;exitDy=0;entryX=0.5;entryY=0;entryDx=0;entryDy=0;" edge="1" parent="1" source="VH3I_mRAAY6PjUP067Ii-118" target="VH3I_mRAAY6PjUP067Ii-121">
          <mxGeometry relative="1" as="geometry" />
        </mxCell>
        <mxCell id="VH3I_mRAAY6PjUP067Ii-127" style="edgeStyle=orthogonalEdgeStyle;rounded=0;orthogonalLoop=1;jettySize=auto;html=1;exitX=0.5;exitY=1;exitDx=0;exitDy=0;entryX=0.5;entryY=0;entryDx=0;entryDy=0;" edge="1" parent="1" source="VH3I_mRAAY6PjUP067Ii-118" target="VH3I_mRAAY6PjUP067Ii-122">
          <mxGeometry relative="1" as="geometry" />
        </mxCell>
        <mxCell id="VH3I_mRAAY6PjUP067Ii-118" value="r_args" style="whiteSpace=wrap;html=1;rounded=1;fillColor=#d5e8d4;strokeColor=#82b366;" vertex="1" parent="1">
          <mxGeometry x="840" y="1210" width="120" height="60" as="geometry" />
        </mxCell>
        <mxCell id="VH3I_mRAAY6PjUP067Ii-120" value="INTEGER" style="whiteSpace=wrap;html=1;rounded=1;shape=hexagon;perimeter=hexagonPerimeter2;" vertex="1" parent="1">
          <mxGeometry x="600" y="1210" width="120" height="60" as="geometry" />
        </mxCell>
        <mxCell id="VH3I_mRAAY6PjUP067Ii-121" value="Lambda" style="rounded=1;whiteSpace=wrap;html=1;shape=hexagon;perimeter=hexagonPerimeter2;" vertex="1" parent="1">
          <mxGeometry x="540" y="1380" width="120" height="60" as="geometry" />
        </mxCell>
        <mxCell id="VH3I_mRAAY6PjUP067Ii-122" value="&lt;b&gt;IDENTIF&lt;/b&gt;" style="whiteSpace=wrap;html=1;rounded=0;shape=hexagon;perimeter=hexagonPerimeter2;" vertex="1" parent="1">
          <mxGeometry x="940" y="1380" width="120" height="60" as="geometry" />
        </mxCell>
        <mxCell id="VH3I_mRAAY6PjUP067Ii-123" value="r_args" style="whiteSpace=wrap;html=1;rounded=1;fillColor=#d5e8d4;strokeColor=#82b366;" vertex="1" parent="1">
          <mxGeometry x="1060" y="1380" width="120" height="60" as="geometry" />
        </mxCell>
        <mxCell id="VH3I_mRAAY6PjUP067Ii-124" value="INTEGER" style="whiteSpace=wrap;html=1;rounded=1;shape=hexagon;perimeter=hexagonPerimeter2;" vertex="1" parent="1">
          <mxGeometry x="820" y="1380" width="120" height="60" as="geometry" />
        </mxCell>
        <mxCell id="VH3I_mRAAY6PjUP067Ii-125" value="&lt;b&gt;,&lt;/b&gt;" style="whiteSpace=wrap;html=1;rounded=1;shape=hexagon;perimeter=hexagonPerimeter2;" vertex="1" parent="1">
          <mxGeometry x="700" y="1380" width="120" height="60" as="geometry" />
        </mxCell>
        <mxCell id="VH3I_mRAAY6PjUP067Ii-130" value="" style="edgeStyle=orthogonalEdgeStyle;rounded=0;orthogonalLoop=1;jettySize=auto;html=1;" edge="1" parent="1" source="VH3I_mRAAY6PjUP067Ii-132" target="VH3I_mRAAY6PjUP067Ii-133">
          <mxGeometry relative="1" as="geometry">
            <Array as="points">
              <mxPoint x="1740" y="640" />
              <mxPoint x="1580" y="640" />
            </Array>
          </mxGeometry>
        </mxCell>
        <mxCell id="VH3I_mRAAY6PjUP067Ii-131" style="edgeStyle=orthogonalEdgeStyle;rounded=0;orthogonalLoop=1;jettySize=auto;html=1;exitX=0.5;exitY=1;exitDx=0;exitDy=0;entryX=0.5;entryY=0;entryDx=0;entryDy=0;" edge="1" parent="1" source="VH3I_mRAAY6PjUP067Ii-132" target="VH3I_mRAAY6PjUP067Ii-136">
          <mxGeometry relative="1" as="geometry" />
        </mxCell>
        <mxCell id="VH3I_mRAAY6PjUP067Ii-132" value="Main" style="rounded=1;whiteSpace=wrap;html=1;" vertex="1" parent="1">
          <mxGeometry x="1680" y="530" width="120" height="60" as="geometry" />
        </mxCell>
        <mxCell id="VH3I_mRAAY6PjUP067Ii-133" value="Lambda" style="rounded=1;whiteSpace=wrap;html=1;shape=hexagon;perimeter=hexagonPerimeter2;" vertex="1" parent="1">
          <mxGeometry x="1520" y="690" width="120" height="60" as="geometry" />
        </mxCell>
        <mxCell id="VH3I_mRAAY6PjUP067Ii-134" value="MAIN" style="whiteSpace=wrap;html=1;rounded=1;shape=hexagon;perimeter=hexagonPerimeter2;" vertex="1" parent="1">
          <mxGeometry x="1690" y="690" width="120" height="60" as="geometry" />
        </mxCell>
        <mxCell id="VH3I_mRAAY6PjUP067Ii-135" value="&lt;b&gt;(&lt;/b&gt;" style="whiteSpace=wrap;html=1;rounded=1;shape=hexagon;perimeter=hexagonPerimeter2;" vertex="1" parent="1">
          <mxGeometry x="1810" y="690" width="120" height="60" as="geometry" />
        </mxCell>
        <mxCell id="VH3I_mRAAY6PjUP067Ii-136" value="args" style="whiteSpace=wrap;html=1;rounded=1;shape=label;perimeter=rectanglePerimeter;" vertex="1" parent="1">
          <mxGeometry x="1930" y="690" width="120" height="60" as="geometry" />
        </mxCell>
        <mxCell id="VH3I_mRAAY6PjUP067Ii-137" value="&lt;b&gt;)&lt;/b&gt;" style="whiteSpace=wrap;html=1;rounded=1;shape=hexagon;perimeter=hexagonPerimeter2;" vertex="1" parent="1">
          <mxGeometry x="2050" y="690" width="120" height="60" as="geometry" />
        </mxCell>
        <mxCell id="VH3I_mRAAY6PjUP067Ii-138" value="lets" style="whiteSpace=wrap;html=1;rounded=1;" vertex="1" parent="1">
          <mxGeometry x="2170" y="690" width="120" height="60" as="geometry" />
        </mxCell>
        <mxCell id="VH3I_mRAAY6PjUP067Ii-140" value="expresion" style="whiteSpace=wrap;html=1;rounded=1;shape=label;perimeter=rectanglePerimeter;" vertex="1" parent="1">
          <mxGeometry x="-180" y="990" width="120" height="60" as="geometry" />
        </mxCell>
        <mxCell id="VH3I_mRAAY6PjUP067Ii-141" value="expresion" style="whiteSpace=wrap;html=1;rounded=1;shape=label;perimeter=rectanglePerimeter;" vertex="1" parent="1">
          <mxGeometry x="-180" y="1100" width="120" height="60" as="geometry" />
        </mxCell>
        <mxCell id="VH3I_mRAAY6PjUP067Ii-142" value="expresion" style="whiteSpace=wrap;html=1;rounded=1;shape=label;perimeter=rectanglePerimeter;" vertex="1" parent="1">
          <mxGeometry x="-180" y="990" width="120" height="60" as="geometry" />
        </mxCell>
        <mxCell id="VH3I_mRAAY6PjUP067Ii-143" value="expresion" style="whiteSpace=wrap;html=1;rounded=1;shape=label;perimeter=rectanglePerimeter;" vertex="1" parent="1">
          <mxGeometry x="-180" y="1100" width="120" height="60" as="geometry" />
        </mxCell>
        <mxCell id="VH3I_mRAAY6PjUP067Ii-144" value="expresion" style="whiteSpace=wrap;html=1;rounded=1;shape=label;perimeter=rectanglePerimeter;fillColor=#d5e8d4;strokeColor=#82b366;" vertex="1" parent="1">
          <mxGeometry x="-180" y="990" width="120" height="60" as="geometry" />
        </mxCell>
        <mxCell id="VH3I_mRAAY6PjUP067Ii-145" value="expresion" style="whiteSpace=wrap;html=1;rounded=1;shape=label;perimeter=rectanglePerimeter;fillColor=#d5e8d4;strokeColor=#82b366;" vertex="1" parent="1">
          <mxGeometry x="-180" y="1100" width="120" height="60" as="geometry" />
        </mxCell>
        <mxCell id="VH3I_mRAAY6PjUP067Ii-146" value="Funciones" style="rounded=1;whiteSpace=wrap;html=1;fillColor=#d5e8d4;strokeColor=#82b366;" vertex="1" parent="1">
          <mxGeometry x="530" y="530" width="120" height="60" as="geometry" />
        </mxCell>
        <mxCell id="VH3I_mRAAY6PjUP067Ii-147" value="Main" style="rounded=1;whiteSpace=wrap;html=1;fillColor=#d5e8d4;strokeColor=#82b366;" vertex="1" parent="1">
          <mxGeometry x="1680" y="530" width="120" height="60" as="geometry" />
        </mxCell>
        <mxCell id="VH3I_mRAAY6PjUP067Ii-148" value="args" style="whiteSpace=wrap;html=1;rounded=1;shape=label;perimeter=rectanglePerimeter;fillColor=#d5e8d4;strokeColor=#82b366;" vertex="1" parent="1">
          <mxGeometry x="1930" y="690" width="120" height="60" as="geometry" />
        </mxCell>
        <mxCell id="VH3I_mRAAY6PjUP067Ii-150" value="lets" style="whiteSpace=wrap;html=1;rounded=1;fillColor=#f8cecc;strokeColor=#b85450;" vertex="1" parent="1">
          <mxGeometry x="2170" y="690" width="120" height="60" as="geometry" />
        </mxCell>
        <mxCell id="VH3I_mRAAY6PjUP067Ii-169" style="edgeStyle=orthogonalEdgeStyle;rounded=0;orthogonalLoop=1;jettySize=auto;html=1;exitX=0.5;exitY=1;exitDx=0;exitDy=0;entryX=0;entryY=0.5;entryDx=0;entryDy=0;" edge="1" parent="1" source="VH3I_mRAAY6PjUP067Ii-151" target="VH3I_mRAAY6PjUP067Ii-162">
          <mxGeometry relative="1" as="geometry" />
        </mxCell>
        <mxCell id="VH3I_mRAAY6PjUP067Ii-170" style="edgeStyle=orthogonalEdgeStyle;rounded=0;orthogonalLoop=1;jettySize=auto;html=1;exitX=0.5;exitY=1;exitDx=0;exitDy=0;entryX=0;entryY=0.5;entryDx=0;entryDy=0;" edge="1" parent="1" source="VH3I_mRAAY6PjUP067Ii-151" target="VH3I_mRAAY6PjUP067Ii-155">
          <mxGeometry relative="1" as="geometry" />
        </mxCell>
        <mxCell id="VH3I_mRAAY6PjUP067Ii-171" style="edgeStyle=orthogonalEdgeStyle;rounded=0;orthogonalLoop=1;jettySize=auto;html=1;exitX=0.5;exitY=1;exitDx=0;exitDy=0;entryX=1;entryY=0.5;entryDx=0;entryDy=0;" edge="1" parent="1" source="VH3I_mRAAY6PjUP067Ii-151" target="VH3I_mRAAY6PjUP067Ii-152">
          <mxGeometry relative="1" as="geometry" />
        </mxCell>
        <mxCell id="VH3I_mRAAY6PjUP067Ii-172" style="edgeStyle=orthogonalEdgeStyle;rounded=0;orthogonalLoop=1;jettySize=auto;html=1;exitX=0.5;exitY=1;exitDx=0;exitDy=0;entryX=1;entryY=0.5;entryDx=0;entryDy=0;" edge="1" parent="1" source="VH3I_mRAAY6PjUP067Ii-151" target="VH3I_mRAAY6PjUP067Ii-153">
          <mxGeometry relative="1" as="geometry" />
        </mxCell>
        <mxCell id="VH3I_mRAAY6PjUP067Ii-151" value="r_declaracion" style="whiteSpace=wrap;html=1;rounded=1;fillColor=#d5e8d4;strokeColor=#82b366;" vertex="1" parent="1">
          <mxGeometry x="-780" y="1390" width="120" height="60" as="geometry" />
        </mxCell>
        <mxCell id="VH3I_mRAAY6PjUP067Ii-152" value="Lambda" style="rounded=1;whiteSpace=wrap;html=1;shape=hexagon;perimeter=hexagonPerimeter2;" vertex="1" parent="1">
          <mxGeometry x="-1070" y="1500" width="120" height="60" as="geometry" />
        </mxCell>
        <mxCell id="VH3I_mRAAY6PjUP067Ii-153" value="r_declaracion" style="whiteSpace=wrap;html=1;rounded=1;shape=label;perimeter=rectanglePerimeter;fillColor=#d5e8d4;strokeColor=#82b366;" vertex="1" parent="1">
          <mxGeometry x="-870" y="1610" width="120" height="60" as="geometry" />
        </mxCell>
        <mxCell id="VH3I_mRAAY6PjUP067Ii-154" value="&lt;b&gt;,&lt;/b&gt;" style="whiteSpace=wrap;html=1;rounded=1;shape=hexagon;perimeter=hexagonPerimeter2;" vertex="1" parent="1">
          <mxGeometry x="-990" y="1610" width="120" height="60" as="geometry" />
        </mxCell>
        <mxCell id="VH3I_mRAAY6PjUP067Ii-155" value="IDENTIF" style="whiteSpace=wrap;html=1;rounded=1;shape=hexagon;perimeter=hexagonPerimeter2;" vertex="1" parent="1">
          <mxGeometry x="-520" y="1500" width="120" height="60" as="geometry" />
        </mxCell>
        <mxCell id="VH3I_mRAAY6PjUP067Ii-156" value="&lt;b&gt;=&lt;/b&gt;" style="whiteSpace=wrap;html=1;rounded=1;shape=hexagon;perimeter=hexagonPerimeter2;" vertex="1" parent="1">
          <mxGeometry x="-400" y="1500" width="120" height="60" as="geometry" />
        </mxCell>
        <mxCell id="VH3I_mRAAY6PjUP067Ii-157" value="expresion" style="whiteSpace=wrap;html=1;rounded=1;shape=label;perimeter=rectanglePerimeter;" vertex="1" parent="1">
          <mxGeometry x="-280" y="1500" width="120" height="60" as="geometry" />
        </mxCell>
        <mxCell id="VH3I_mRAAY6PjUP067Ii-158" value="r_declaracion" style="whiteSpace=wrap;html=1;rounded=1;fillColor=#d5e8d4;strokeColor=#82b366;" vertex="1" parent="1">
          <mxGeometry x="-160" y="1500" width="120" height="60" as="geometry" />
        </mxCell>
        <mxCell id="VH3I_mRAAY6PjUP067Ii-159" value="expresion" style="whiteSpace=wrap;html=1;rounded=1;shape=label;perimeter=rectanglePerimeter;" vertex="1" parent="1">
          <mxGeometry x="-280" y="1500" width="120" height="60" as="geometry" />
        </mxCell>
        <mxCell id="VH3I_mRAAY6PjUP067Ii-160" value="expresion" style="whiteSpace=wrap;html=1;rounded=1;shape=label;perimeter=rectanglePerimeter;" vertex="1" parent="1">
          <mxGeometry x="-280" y="1500" width="120" height="60" as="geometry" />
        </mxCell>
        <mxCell id="VH3I_mRAAY6PjUP067Ii-161" value="expresion" style="whiteSpace=wrap;html=1;rounded=1;shape=label;perimeter=rectanglePerimeter;fillColor=#d5e8d4;strokeColor=#82b366;" vertex="1" parent="1">
          <mxGeometry x="-280" y="1500" width="120" height="60" as="geometry" />
        </mxCell>
        <mxCell id="VH3I_mRAAY6PjUP067Ii-162" value="IDENTIF" style="whiteSpace=wrap;html=1;rounded=1;shape=hexagon;perimeter=hexagonPerimeter2;" vertex="1" parent="1">
          <mxGeometry x="-680" y="1610" width="120" height="60" as="geometry" />
        </mxCell>
        <mxCell id="VH3I_mRAAY6PjUP067Ii-165" value="r_declaracion" style="whiteSpace=wrap;html=1;rounded=1;fillColor=#d5e8d4;strokeColor=#82b366;" vertex="1" parent="1">
          <mxGeometry x="-560" y="1610" width="120" height="60" as="geometry" />
        </mxCell>
        <mxCell id="VH3I_mRAAY6PjUP067Ii-191" style="edgeStyle=orthogonalEdgeStyle;rounded=0;orthogonalLoop=1;jettySize=auto;html=1;exitX=0.5;exitY=1;exitDx=0;exitDy=0;entryX=0;entryY=0;entryDx=0;entryDy=0;" edge="1" parent="1" source="VH3I_mRAAY6PjUP067Ii-178" target="VH3I_mRAAY6PjUP067Ii-190">
          <mxGeometry relative="1" as="geometry" />
        </mxCell>
        <mxCell id="VH3I_mRAAY6PjUP067Ii-178" value="lets" style="whiteSpace=wrap;html=1;rounded=1;fillColor=#d5e8d4;strokeColor=#82b366;" vertex="1" parent="1">
          <mxGeometry x="2060" y="1090" width="120" height="60" as="geometry" />
        </mxCell>
        <mxCell id="VH3I_mRAAY6PjUP067Ii-179" value="&lt;b&gt;(&lt;/b&gt;" style="whiteSpace=wrap;html=1;rounded=1;shape=hexagon;perimeter=hexagonPerimeter2;" vertex="1" parent="1">
          <mxGeometry x="1810" y="690" width="120" height="60" as="geometry" />
        </mxCell>
        <mxCell id="VH3I_mRAAY6PjUP067Ii-180" value="args" style="whiteSpace=wrap;html=1;rounded=1;shape=label;perimeter=rectanglePerimeter;" vertex="1" parent="1">
          <mxGeometry x="1930" y="690" width="120" height="60" as="geometry" />
        </mxCell>
        <mxCell id="VH3I_mRAAY6PjUP067Ii-181" value="&lt;b&gt;)&lt;/b&gt;" style="whiteSpace=wrap;html=1;rounded=1;shape=hexagon;perimeter=hexagonPerimeter2;" vertex="1" parent="1">
          <mxGeometry x="2050" y="690" width="120" height="60" as="geometry" />
        </mxCell>
        <mxCell id="VH3I_mRAAY6PjUP067Ii-182" value="lets" style="whiteSpace=wrap;html=1;rounded=1;" vertex="1" parent="1">
          <mxGeometry x="2170" y="690" width="120" height="60" as="geometry" />
        </mxCell>
        <mxCell id="VH3I_mRAAY6PjUP067Ii-183" value="args" style="whiteSpace=wrap;html=1;rounded=1;shape=label;perimeter=rectanglePerimeter;fillColor=#d5e8d4;strokeColor=#82b366;" vertex="1" parent="1">
          <mxGeometry x="1930" y="690" width="120" height="60" as="geometry" />
        </mxCell>
        <mxCell id="VH3I_mRAAY6PjUP067Ii-184" value="lets" style="whiteSpace=wrap;html=1;rounded=1;fillColor=#d5e8d4;strokeColor=#82b366;" vertex="1" parent="1">
          <mxGeometry x="2170" y="690" width="120" height="60" as="geometry" />
        </mxCell>
        <mxCell id="VH3I_mRAAY6PjUP067Ii-185" value="&lt;b&gt;{&lt;/b&gt;" style="whiteSpace=wrap;html=1;rounded=1;shape=hexagon;perimeter=hexagonPerimeter2;" vertex="1" parent="1">
          <mxGeometry x="1880" y="1220" width="120" height="60" as="geometry" />
        </mxCell>
        <mxCell id="VH3I_mRAAY6PjUP067Ii-186" value="args" style="whiteSpace=wrap;html=1;rounded=1;shape=label;perimeter=rectanglePerimeter;" vertex="1" parent="1">
          <mxGeometry x="2000" y="1220" width="120" height="60" as="geometry" />
        </mxCell>
        <mxCell id="VH3I_mRAAY6PjUP067Ii-187" value="&lt;b&gt;}&lt;/b&gt;" style="whiteSpace=wrap;html=1;rounded=1;shape=hexagon;perimeter=hexagonPerimeter2;" vertex="1" parent="1">
          <mxGeometry x="2240" y="1220" width="120" height="60" as="geometry" />
        </mxCell>
        <mxCell id="VH3I_mRAAY6PjUP067Ii-188" value="lets" style="whiteSpace=wrap;html=1;rounded=1;" vertex="1" parent="1">
          <mxGeometry x="2120" y="1220" width="120" height="60" as="geometry" />
        </mxCell>
        <mxCell id="VH3I_mRAAY6PjUP067Ii-189" value="declaracion_let" style="whiteSpace=wrap;html=1;rounded=1;shape=label;perimeter=rectanglePerimeter;fillColor=#f8cecc;strokeColor=#b85450;" vertex="1" parent="1">
          <mxGeometry x="2000" y="1220" width="120" height="60" as="geometry" />
        </mxCell>
        <mxCell id="VH3I_mRAAY6PjUP067Ii-190" value="body" style="whiteSpace=wrap;html=1;rounded=1;fillColor=#d5e8d4;strokeColor=#82b366;" vertex="1" parent="1">
          <mxGeometry x="2120" y="1220" width="120" height="60" as="geometry" />
        </mxCell>
        <mxCell id="VH3I_mRAAY6PjUP067Ii-192" value="IDENTIF" style="whiteSpace=wrap;html=1;rounded=1;shape=hexagon;perimeter=hexagonPerimeter2;" vertex="1" parent="1">
          <mxGeometry x="2110" y="1490" width="120" height="60" as="geometry" />
        </mxCell>
        <mxCell id="VH3I_mRAAY6PjUP067Ii-193" value="&lt;b&gt;=&lt;/b&gt;" style="whiteSpace=wrap;html=1;rounded=1;shape=hexagon;perimeter=hexagonPerimeter2;" vertex="1" parent="1">
          <mxGeometry x="2230" y="1490" width="120" height="60" as="geometry" />
        </mxCell>
        <mxCell id="VH3I_mRAAY6PjUP067Ii-194" value="expresion" style="whiteSpace=wrap;html=1;rounded=1;shape=label;perimeter=rectanglePerimeter;" vertex="1" parent="1">
          <mxGeometry x="2350" y="1490" width="120" height="60" as="geometry" />
        </mxCell>
        <mxCell id="VH3I_mRAAY6PjUP067Ii-196" value="IDENTIF" style="whiteSpace=wrap;html=1;rounded=1;shape=hexagon;perimeter=hexagonPerimeter2;" vertex="1" parent="1">
          <mxGeometry x="2110" y="1590" width="120" height="60" as="geometry" />
        </mxCell>
        <mxCell id="VH3I_mRAAY6PjUP067Ii-197" value="r_declaracion_lets" style="whiteSpace=wrap;html=1;rounded=1;fillColor=#d5e8d4;strokeColor=#82b366;" vertex="1" parent="1">
          <mxGeometry x="2230" y="1590" width="120" height="60" as="geometry" />
        </mxCell>
        <mxCell id="VH3I_mRAAY6PjUP067Ii-198" value="IDENTIF" style="whiteSpace=wrap;html=1;rounded=1;shape=hexagon;perimeter=hexagonPerimeter2;" vertex="1" parent="1">
          <mxGeometry x="2110" y="1380" width="120" height="60" as="geometry" />
        </mxCell>
        <mxCell id="VH3I_mRAAY6PjUP067Ii-199" value="&lt;b&gt;[&lt;/b&gt;" style="whiteSpace=wrap;html=1;rounded=1;shape=hexagon;perimeter=hexagonPerimeter2;" vertex="1" parent="1">
          <mxGeometry x="2230" y="1380" width="120" height="60" as="geometry" />
        </mxCell>
        <mxCell id="VH3I_mRAAY6PjUP067Ii-200" value="expresion" style="whiteSpace=wrap;html=1;rounded=1;shape=label;perimeter=rectanglePerimeter;" vertex="1" parent="1">
          <mxGeometry x="2350" y="1380" width="120" height="60" as="geometry" />
        </mxCell>
        <mxCell id="VH3I_mRAAY6PjUP067Ii-201" value="&lt;b&gt;]&lt;/b&gt;" style="whiteSpace=wrap;html=1;rounded=1;shape=hexagon;perimeter=hexagonPerimeter2;" vertex="1" parent="1">
          <mxGeometry x="2470" y="1380" width="120" height="60" as="geometry" />
        </mxCell>
        <mxCell id="VH3I_mRAAY6PjUP067Ii-203" value="INTEGER" style="whiteSpace=wrap;html=1;rounded=1;shape=hexagon;perimeter=hexagonPerimeter2;" vertex="1" parent="1">
          <mxGeometry x="1990" y="1590" width="120" height="60" as="geometry" />
        </mxCell>
        <mxCell id="VH3I_mRAAY6PjUP067Ii-204" value="INTEGER" style="whiteSpace=wrap;html=1;rounded=1;shape=hexagon;perimeter=hexagonPerimeter2;" vertex="1" parent="1">
          <mxGeometry x="1990" y="1490" width="120" height="60" as="geometry" />
        </mxCell>
        <mxCell id="VH3I_mRAAY6PjUP067Ii-205" value="INTEGER" style="whiteSpace=wrap;html=1;rounded=1;shape=hexagon;perimeter=hexagonPerimeter2;" vertex="1" parent="1">
          <mxGeometry x="1990" y="1380" width="120" height="60" as="geometry" />
        </mxCell>
        <mxCell id="VH3I_mRAAY6PjUP067Ii-206" value="expresion" style="whiteSpace=wrap;html=1;rounded=1;shape=label;perimeter=rectanglePerimeter;" vertex="1" parent="1">
          <mxGeometry x="2350" y="1380" width="120" height="60" as="geometry" />
        </mxCell>
        <mxCell id="VH3I_mRAAY6PjUP067Ii-207" value="expresion" style="whiteSpace=wrap;html=1;rounded=1;shape=label;perimeter=rectanglePerimeter;" vertex="1" parent="1">
          <mxGeometry x="2350" y="1490" width="120" height="60" as="geometry" />
        </mxCell>
        <mxCell id="VH3I_mRAAY6PjUP067Ii-208" value="expresion" style="whiteSpace=wrap;html=1;rounded=1;shape=label;perimeter=rectanglePerimeter;" vertex="1" parent="1">
          <mxGeometry x="2350" y="1380" width="120" height="60" as="geometry" />
        </mxCell>
        <mxCell id="VH3I_mRAAY6PjUP067Ii-209" value="expresion" style="whiteSpace=wrap;html=1;rounded=1;shape=label;perimeter=rectanglePerimeter;" vertex="1" parent="1">
          <mxGeometry x="2350" y="1490" width="120" height="60" as="geometry" />
        </mxCell>
        <mxCell id="VH3I_mRAAY6PjUP067Ii-210" value="expresion" style="whiteSpace=wrap;html=1;rounded=1;shape=label;perimeter=rectanglePerimeter;fillColor=#d5e8d4;strokeColor=#82b366;" vertex="1" parent="1">
          <mxGeometry x="2350" y="1380" width="120" height="60" as="geometry" />
        </mxCell>
        <mxCell id="VH3I_mRAAY6PjUP067Ii-211" value="expresion" style="whiteSpace=wrap;html=1;rounded=1;shape=label;perimeter=rectanglePerimeter;fillColor=#d5e8d4;strokeColor=#82b366;" vertex="1" parent="1">
          <mxGeometry x="2350" y="1490" width="120" height="60" as="geometry" />
        </mxCell>
        <mxCell id="VH3I_mRAAY6PjUP067Ii-226" style="edgeStyle=orthogonalEdgeStyle;rounded=0;orthogonalLoop=1;jettySize=auto;html=1;exitX=1;exitY=0.5;exitDx=0;exitDy=0;entryX=0;entryY=0.5;entryDx=0;entryDy=0;" edge="1" parent="1" source="VH3I_mRAAY6PjUP067Ii-212" target="VH3I_mRAAY6PjUP067Ii-204">
          <mxGeometry relative="1" as="geometry" />
        </mxCell>
        <mxCell id="VH3I_mRAAY6PjUP067Ii-227" style="edgeStyle=orthogonalEdgeStyle;rounded=0;orthogonalLoop=1;jettySize=auto;html=1;exitX=1;exitY=0.5;exitDx=0;exitDy=0;entryX=0;entryY=0.5;entryDx=0;entryDy=0;" edge="1" parent="1" source="VH3I_mRAAY6PjUP067Ii-212" target="VH3I_mRAAY6PjUP067Ii-205">
          <mxGeometry relative="1" as="geometry" />
        </mxCell>
        <mxCell id="VH3I_mRAAY6PjUP067Ii-228" style="edgeStyle=orthogonalEdgeStyle;rounded=0;orthogonalLoop=1;jettySize=auto;html=1;exitX=1;exitY=0.5;exitDx=0;exitDy=0;entryX=0;entryY=0.5;entryDx=0;entryDy=0;" edge="1" parent="1" source="VH3I_mRAAY6PjUP067Ii-212" target="VH3I_mRAAY6PjUP067Ii-203">
          <mxGeometry relative="1" as="geometry" />
        </mxCell>
        <mxCell id="VH3I_mRAAY6PjUP067Ii-229" style="edgeStyle=orthogonalEdgeStyle;rounded=0;orthogonalLoop=1;jettySize=auto;html=1;exitX=1;exitY=0.5;exitDx=0;exitDy=0;entryX=0;entryY=0.5;entryDx=0;entryDy=0;" edge="1" parent="1" source="VH3I_mRAAY6PjUP067Ii-212" target="VH3I_mRAAY6PjUP067Ii-213">
          <mxGeometry relative="1" as="geometry" />
        </mxCell>
        <mxCell id="VH3I_mRAAY6PjUP067Ii-212" value="declaracion_let" style="whiteSpace=wrap;html=1;rounded=1;shape=label;perimeter=rectanglePerimeter;fillColor=#f8cecc;strokeColor=#b85450;" vertex="1" parent="1">
          <mxGeometry x="1780" y="1540" width="120" height="60" as="geometry" />
        </mxCell>
        <mxCell id="VH3I_mRAAY6PjUP067Ii-213" value="Lambda" style="rounded=1;whiteSpace=wrap;html=1;shape=hexagon;perimeter=hexagonPerimeter2;" vertex="1" parent="1">
          <mxGeometry x="1990" y="1690" width="120" height="60" as="geometry" />
        </mxCell>
        <mxCell id="VH3I_mRAAY6PjUP067Ii-214" value="&lt;b&gt;;&lt;/b&gt;" style="whiteSpace=wrap;html=1;rounded=1;shape=hexagon;perimeter=hexagonPerimeter2;" vertex="1" parent="1">
          <mxGeometry x="2350" y="1590" width="120" height="60" as="geometry" />
        </mxCell>
        <mxCell id="VH3I_mRAAY6PjUP067Ii-215" value="declaracion_let" style="whiteSpace=wrap;html=1;rounded=1;shape=label;perimeter=rectanglePerimeter;fillColor=#f8cecc;strokeColor=#b85450;" vertex="1" parent="1">
          <mxGeometry x="2470" y="1590" width="120" height="60" as="geometry" />
        </mxCell>
        <mxCell id="VH3I_mRAAY6PjUP067Ii-216" value="r_declaracion_lets" style="whiteSpace=wrap;html=1;rounded=1;fillColor=#d5e8d4;strokeColor=#82b366;" vertex="1" parent="1">
          <mxGeometry x="2470" y="1490" width="120" height="60" as="geometry" />
        </mxCell>
        <mxCell id="VH3I_mRAAY6PjUP067Ii-217" value="&lt;b&gt;;&lt;/b&gt;" style="whiteSpace=wrap;html=1;rounded=1;shape=hexagon;perimeter=hexagonPerimeter2;" vertex="1" parent="1">
          <mxGeometry x="2590" y="1490" width="120" height="60" as="geometry" />
        </mxCell>
        <mxCell id="VH3I_mRAAY6PjUP067Ii-218" value="declaracion_let" style="whiteSpace=wrap;html=1;rounded=1;shape=label;perimeter=rectanglePerimeter;fillColor=#d5e8d4;strokeColor=#82b366;" vertex="1" parent="1">
          <mxGeometry x="2710" y="1490" width="120" height="60" as="geometry" />
        </mxCell>
        <mxCell id="VH3I_mRAAY6PjUP067Ii-223" value="r_declaracion_lets" style="whiteSpace=wrap;html=1;rounded=1;fillColor=#d5e8d4;strokeColor=#82b366;" vertex="1" parent="1">
          <mxGeometry x="2590" y="1380" width="120" height="60" as="geometry" />
        </mxCell>
        <mxCell id="VH3I_mRAAY6PjUP067Ii-224" value="&lt;b&gt;;&lt;/b&gt;" style="whiteSpace=wrap;html=1;rounded=1;shape=hexagon;perimeter=hexagonPerimeter2;" vertex="1" parent="1">
          <mxGeometry x="2710" y="1380" width="120" height="60" as="geometry" />
        </mxCell>
        <mxCell id="VH3I_mRAAY6PjUP067Ii-225" value="declaracion_let" style="whiteSpace=wrap;html=1;rounded=1;shape=label;perimeter=rectanglePerimeter;fillColor=#d5e8d4;strokeColor=#82b366;" vertex="1" parent="1">
          <mxGeometry x="2830" y="1380" width="120" height="60" as="geometry" />
        </mxCell>
        <mxCell id="VH3I_mRAAY6PjUP067Ii-230" value="declaracion_let" style="whiteSpace=wrap;html=1;rounded=1;shape=label;perimeter=rectanglePerimeter;fillColor=#d5e8d4;strokeColor=#82b366;" vertex="1" parent="1">
          <mxGeometry x="1780" y="1540" width="120" height="60" as="geometry" />
        </mxCell>
        <mxCell id="VH3I_mRAAY6PjUP067Ii-231" value="declaracion_let" style="whiteSpace=wrap;html=1;rounded=1;shape=label;perimeter=rectanglePerimeter;fillColor=#d5e8d4;strokeColor=#82b366;" vertex="1" parent="1">
          <mxGeometry x="2000" y="1220" width="120" height="60" as="geometry" />
        </mxCell>
        <mxCell id="VH3I_mRAAY6PjUP067Ii-232" value="declaracion_let" style="whiteSpace=wrap;html=1;rounded=1;shape=label;perimeter=rectanglePerimeter;fillColor=#d5e8d4;strokeColor=#82b366;" vertex="1" parent="1">
          <mxGeometry x="2470" y="1590" width="120" height="60" as="geometry" />
        </mxCell>
        <mxCell id="VH3I_mRAAY6PjUP067Ii-233" value="IDENTIF" style="whiteSpace=wrap;html=1;rounded=1;shape=hexagon;perimeter=hexagonPerimeter2;" vertex="1" parent="1">
          <mxGeometry x="1990" y="1940" width="120" height="60" as="geometry" />
        </mxCell>
        <mxCell id="VH3I_mRAAY6PjUP067Ii-234" value="&lt;b&gt;=&lt;/b&gt;" style="whiteSpace=wrap;html=1;rounded=1;shape=hexagon;perimeter=hexagonPerimeter2;" vertex="1" parent="1">
          <mxGeometry x="2110" y="1940" width="120" height="60" as="geometry" />
        </mxCell>
        <mxCell id="VH3I_mRAAY6PjUP067Ii-235" value="expresion" style="whiteSpace=wrap;html=1;rounded=1;shape=label;perimeter=rectanglePerimeter;" vertex="1" parent="1">
          <mxGeometry x="2230" y="1940" width="120" height="60" as="geometry" />
        </mxCell>
        <mxCell id="VH3I_mRAAY6PjUP067Ii-236" value="&lt;b&gt;,&lt;/b&gt;" style="whiteSpace=wrap;html=1;rounded=1;shape=hexagon;perimeter=hexagonPerimeter2;" vertex="1" parent="1">
          <mxGeometry x="1990" y="2160" width="120" height="60" as="geometry" />
        </mxCell>
        <mxCell id="VH3I_mRAAY6PjUP067Ii-237" value="r_declaracion_lets" style="whiteSpace=wrap;html=1;rounded=1;fillColor=#d5e8d4;strokeColor=#82b366;" vertex="1" parent="1">
          <mxGeometry x="2110" y="2160" width="120" height="60" as="geometry" />
        </mxCell>
        <mxCell id="VH3I_mRAAY6PjUP067Ii-238" value="IDENTIF" style="whiteSpace=wrap;html=1;rounded=1;shape=hexagon;perimeter=hexagonPerimeter2;" vertex="1" parent="1">
          <mxGeometry x="1990" y="1830" width="120" height="60" as="geometry" />
        </mxCell>
        <mxCell id="VH3I_mRAAY6PjUP067Ii-239" value="&lt;b&gt;[&lt;/b&gt;" style="whiteSpace=wrap;html=1;rounded=1;shape=hexagon;perimeter=hexagonPerimeter2;" vertex="1" parent="1">
          <mxGeometry x="2110" y="1830" width="120" height="60" as="geometry" />
        </mxCell>
        <mxCell id="VH3I_mRAAY6PjUP067Ii-240" value="expresion" style="whiteSpace=wrap;html=1;rounded=1;shape=label;perimeter=rectanglePerimeter;" vertex="1" parent="1">
          <mxGeometry x="2230" y="1830" width="120" height="60" as="geometry" />
        </mxCell>
        <mxCell id="VH3I_mRAAY6PjUP067Ii-241" value="&lt;b&gt;]&lt;/b&gt;" style="whiteSpace=wrap;html=1;rounded=1;shape=hexagon;perimeter=hexagonPerimeter2;" vertex="1" parent="1">
          <mxGeometry x="2350" y="1830" width="120" height="60" as="geometry" />
        </mxCell>
        <mxCell id="VH3I_mRAAY6PjUP067Ii-245" value="expresion" style="whiteSpace=wrap;html=1;rounded=1;shape=label;perimeter=rectanglePerimeter;" vertex="1" parent="1">
          <mxGeometry x="2230" y="1830" width="120" height="60" as="geometry" />
        </mxCell>
        <mxCell id="VH3I_mRAAY6PjUP067Ii-246" value="expresion" style="whiteSpace=wrap;html=1;rounded=1;shape=label;perimeter=rectanglePerimeter;" vertex="1" parent="1">
          <mxGeometry x="2230" y="1940" width="120" height="60" as="geometry" />
        </mxCell>
        <mxCell id="VH3I_mRAAY6PjUP067Ii-247" value="expresion" style="whiteSpace=wrap;html=1;rounded=1;shape=label;perimeter=rectanglePerimeter;" vertex="1" parent="1">
          <mxGeometry x="2230" y="1830" width="120" height="60" as="geometry" />
        </mxCell>
        <mxCell id="VH3I_mRAAY6PjUP067Ii-248" value="expresion" style="whiteSpace=wrap;html=1;rounded=1;shape=label;perimeter=rectanglePerimeter;" vertex="1" parent="1">
          <mxGeometry x="2230" y="1940" width="120" height="60" as="geometry" />
        </mxCell>
        <mxCell id="VH3I_mRAAY6PjUP067Ii-249" value="expresion" style="whiteSpace=wrap;html=1;rounded=1;shape=label;perimeter=rectanglePerimeter;fillColor=#d5e8d4;strokeColor=#82b366;" vertex="1" parent="1">
          <mxGeometry x="2230" y="1830" width="120" height="60" as="geometry" />
        </mxCell>
        <mxCell id="VH3I_mRAAY6PjUP067Ii-250" value="expresion" style="whiteSpace=wrap;html=1;rounded=1;shape=label;perimeter=rectanglePerimeter;fillColor=#d5e8d4;strokeColor=#82b366;" vertex="1" parent="1">
          <mxGeometry x="2230" y="1940" width="120" height="60" as="geometry" />
        </mxCell>
        <mxCell id="VH3I_mRAAY6PjUP067Ii-256" value="Lambda" style="rounded=1;whiteSpace=wrap;html=1;shape=hexagon;perimeter=hexagonPerimeter2;" vertex="1" parent="1">
          <mxGeometry x="1990" y="2260" width="120" height="60" as="geometry" />
        </mxCell>
        <mxCell id="VH3I_mRAAY6PjUP067Ii-259" value="r_declaracion_lets" style="whiteSpace=wrap;html=1;rounded=1;fillColor=#d5e8d4;strokeColor=#82b366;" vertex="1" parent="1">
          <mxGeometry x="2350" y="1940" width="120" height="60" as="geometry" />
        </mxCell>
        <mxCell id="VH3I_mRAAY6PjUP067Ii-262" value="r_declaracion_lets" style="whiteSpace=wrap;html=1;rounded=1;fillColor=#d5e8d4;strokeColor=#82b366;" vertex="1" parent="1">
          <mxGeometry x="2470" y="1830" width="120" height="60" as="geometry" />
        </mxCell>
        <mxCell id="VH3I_mRAAY6PjUP067Ii-269" value="" style="edgeStyle=orthogonalEdgeStyle;rounded=0;orthogonalLoop=1;jettySize=auto;html=1;" edge="1" parent="1" source="VH3I_mRAAY6PjUP067Ii-265" target="VH3I_mRAAY6PjUP067Ii-267">
          <mxGeometry relative="1" as="geometry" />
        </mxCell>
        <mxCell id="VH3I_mRAAY6PjUP067Ii-270" style="edgeStyle=orthogonalEdgeStyle;rounded=0;orthogonalLoop=1;jettySize=auto;html=1;exitX=1;exitY=0.5;exitDx=0;exitDy=0;entryX=0;entryY=0.5;entryDx=0;entryDy=0;" edge="1" parent="1" source="VH3I_mRAAY6PjUP067Ii-265" target="VH3I_mRAAY6PjUP067Ii-236">
          <mxGeometry relative="1" as="geometry" />
        </mxCell>
        <mxCell id="VH3I_mRAAY6PjUP067Ii-272" style="edgeStyle=orthogonalEdgeStyle;rounded=0;orthogonalLoop=1;jettySize=auto;html=1;exitX=1;exitY=0.5;exitDx=0;exitDy=0;entryX=0;entryY=0.5;entryDx=0;entryDy=0;" edge="1" parent="1" source="VH3I_mRAAY6PjUP067Ii-265" target="VH3I_mRAAY6PjUP067Ii-256">
          <mxGeometry relative="1" as="geometry" />
        </mxCell>
        <mxCell id="VH3I_mRAAY6PjUP067Ii-273" style="edgeStyle=orthogonalEdgeStyle;rounded=0;orthogonalLoop=1;jettySize=auto;html=1;exitX=1;exitY=0.5;exitDx=0;exitDy=0;entryX=0;entryY=0.5;entryDx=0;entryDy=0;" edge="1" parent="1" source="VH3I_mRAAY6PjUP067Ii-265" target="VH3I_mRAAY6PjUP067Ii-233">
          <mxGeometry relative="1" as="geometry" />
        </mxCell>
        <mxCell id="VH3I_mRAAY6PjUP067Ii-274" style="edgeStyle=orthogonalEdgeStyle;rounded=0;orthogonalLoop=1;jettySize=auto;html=1;exitX=1;exitY=0.5;exitDx=0;exitDy=0;entryX=0;entryY=0.5;entryDx=0;entryDy=0;" edge="1" parent="1" source="VH3I_mRAAY6PjUP067Ii-265" target="VH3I_mRAAY6PjUP067Ii-238">
          <mxGeometry relative="1" as="geometry" />
        </mxCell>
        <mxCell id="VH3I_mRAAY6PjUP067Ii-265" value="r_declaracion_lets" style="whiteSpace=wrap;html=1;rounded=1;shape=label;perimeter=rectanglePerimeter;fillColor=#d5e8d4;strokeColor=#82b366;" vertex="1" parent="1">
          <mxGeometry x="1760" y="2060" width="120" height="60" as="geometry" />
        </mxCell>
        <mxCell id="VH3I_mRAAY6PjUP067Ii-267" value="IDENTIF" style="whiteSpace=wrap;html=1;rounded=1;shape=hexagon;perimeter=hexagonPerimeter2;" vertex="1" parent="1">
          <mxGeometry x="1990" y="2060" width="120" height="60" as="geometry" />
        </mxCell>
        <mxCell id="VH3I_mRAAY6PjUP067Ii-268" value="r_declaracion_lets" style="whiteSpace=wrap;html=1;rounded=1;fillColor=#d5e8d4;strokeColor=#82b366;" vertex="1" parent="1">
          <mxGeometry x="2110" y="2060" width="120" height="60" as="geometry" />
        </mxCell>
        <mxCell id="VH3I_mRAAY6PjUP067Ii-317" style="edgeStyle=orthogonalEdgeStyle;rounded=0;orthogonalLoop=1;jettySize=auto;html=1;exitX=1;exitY=0.5;exitDx=0;exitDy=0;entryX=0;entryY=0.5;entryDx=0;entryDy=0;" edge="1" parent="1" source="VH3I_mRAAY6PjUP067Ii-275" target="VH3I_mRAAY6PjUP067Ii-299">
          <mxGeometry relative="1" as="geometry" />
        </mxCell>
        <mxCell id="VH3I_mRAAY6PjUP067Ii-318" style="edgeStyle=orthogonalEdgeStyle;rounded=0;orthogonalLoop=1;jettySize=auto;html=1;exitX=1;exitY=0.5;exitDx=0;exitDy=0;entryX=0;entryY=0.5;entryDx=0;entryDy=0;" edge="1" parent="1" source="VH3I_mRAAY6PjUP067Ii-275" target="VH3I_mRAAY6PjUP067Ii-296">
          <mxGeometry relative="1" as="geometry" />
        </mxCell>
        <mxCell id="VH3I_mRAAY6PjUP067Ii-319" style="edgeStyle=orthogonalEdgeStyle;rounded=0;orthogonalLoop=1;jettySize=auto;html=1;exitX=1;exitY=0.5;exitDx=0;exitDy=0;entryX=0;entryY=0.5;entryDx=0;entryDy=0;" edge="1" parent="1" source="VH3I_mRAAY6PjUP067Ii-275" target="VH3I_mRAAY6PjUP067Ii-293">
          <mxGeometry relative="1" as="geometry" />
        </mxCell>
        <mxCell id="VH3I_mRAAY6PjUP067Ii-320" style="edgeStyle=orthogonalEdgeStyle;rounded=0;orthogonalLoop=1;jettySize=auto;html=1;exitX=1;exitY=0.5;exitDx=0;exitDy=0;entryX=0;entryY=0.5;entryDx=0;entryDy=0;" edge="1" parent="1" source="VH3I_mRAAY6PjUP067Ii-275" target="VH3I_mRAAY6PjUP067Ii-302">
          <mxGeometry relative="1" as="geometry" />
        </mxCell>
        <mxCell id="VH3I_mRAAY6PjUP067Ii-321" style="edgeStyle=orthogonalEdgeStyle;rounded=0;orthogonalLoop=1;jettySize=auto;html=1;exitX=1;exitY=0.5;exitDx=0;exitDy=0;entryX=0;entryY=0.5;entryDx=0;entryDy=0;" edge="1" parent="1" source="VH3I_mRAAY6PjUP067Ii-275" target="VH3I_mRAAY6PjUP067Ii-305">
          <mxGeometry relative="1" as="geometry" />
        </mxCell>
        <mxCell id="VH3I_mRAAY6PjUP067Ii-322" style="edgeStyle=orthogonalEdgeStyle;rounded=0;orthogonalLoop=1;jettySize=auto;html=1;exitX=1;exitY=0.5;exitDx=0;exitDy=0;entryX=0;entryY=0.5;entryDx=0;entryDy=0;" edge="1" parent="1" source="VH3I_mRAAY6PjUP067Ii-275" target="VH3I_mRAAY6PjUP067Ii-308">
          <mxGeometry relative="1" as="geometry" />
        </mxCell>
        <mxCell id="VH3I_mRAAY6PjUP067Ii-323" style="edgeStyle=orthogonalEdgeStyle;rounded=0;orthogonalLoop=1;jettySize=auto;html=1;exitX=1;exitY=0.5;exitDx=0;exitDy=0;entryX=0;entryY=0.5;entryDx=0;entryDy=0;" edge="1" parent="1" source="VH3I_mRAAY6PjUP067Ii-275" target="VH3I_mRAAY6PjUP067Ii-311">
          <mxGeometry relative="1" as="geometry" />
        </mxCell>
        <mxCell id="VH3I_mRAAY6PjUP067Ii-324" style="edgeStyle=orthogonalEdgeStyle;rounded=0;orthogonalLoop=1;jettySize=auto;html=1;exitX=1;exitY=0.5;exitDx=0;exitDy=0;entryX=0;entryY=0.5;entryDx=0;entryDy=0;" edge="1" parent="1" source="VH3I_mRAAY6PjUP067Ii-275" target="VH3I_mRAAY6PjUP067Ii-314">
          <mxGeometry relative="1" as="geometry" />
        </mxCell>
        <mxCell id="VH3I_mRAAY6PjUP067Ii-325" style="edgeStyle=orthogonalEdgeStyle;rounded=0;orthogonalLoop=1;jettySize=auto;html=1;exitX=1;exitY=0.5;exitDx=0;exitDy=0;entryX=0;entryY=0.5;entryDx=0;entryDy=0;" edge="1" parent="1" source="VH3I_mRAAY6PjUP067Ii-275" target="VH3I_mRAAY6PjUP067Ii-290">
          <mxGeometry relative="1" as="geometry" />
        </mxCell>
        <mxCell id="VH3I_mRAAY6PjUP067Ii-326" style="edgeStyle=orthogonalEdgeStyle;rounded=0;orthogonalLoop=1;jettySize=auto;html=1;exitX=1;exitY=0.5;exitDx=0;exitDy=0;entryX=0;entryY=0.5;entryDx=0;entryDy=0;" edge="1" parent="1" source="VH3I_mRAAY6PjUP067Ii-275" target="VH3I_mRAAY6PjUP067Ii-287">
          <mxGeometry relative="1" as="geometry" />
        </mxCell>
        <mxCell id="VH3I_mRAAY6PjUP067Ii-327" style="edgeStyle=orthogonalEdgeStyle;rounded=0;orthogonalLoop=1;jettySize=auto;html=1;exitX=1;exitY=0.5;exitDx=0;exitDy=0;entryX=0;entryY=0.5;entryDx=0;entryDy=0;" edge="1" parent="1" source="VH3I_mRAAY6PjUP067Ii-275" target="VH3I_mRAAY6PjUP067Ii-284">
          <mxGeometry relative="1" as="geometry" />
        </mxCell>
        <mxCell id="VH3I_mRAAY6PjUP067Ii-328" style="edgeStyle=orthogonalEdgeStyle;rounded=0;orthogonalLoop=1;jettySize=auto;html=1;exitX=1;exitY=0.5;exitDx=0;exitDy=0;entryX=0;entryY=0.5;entryDx=0;entryDy=0;" edge="1" parent="1" source="VH3I_mRAAY6PjUP067Ii-275" target="VH3I_mRAAY6PjUP067Ii-281">
          <mxGeometry relative="1" as="geometry" />
        </mxCell>
        <mxCell id="VH3I_mRAAY6PjUP067Ii-329" style="edgeStyle=orthogonalEdgeStyle;rounded=0;orthogonalLoop=1;jettySize=auto;html=1;exitX=1;exitY=0.5;exitDx=0;exitDy=0;entryX=0;entryY=0.5;entryDx=0;entryDy=0;" edge="1" parent="1" source="VH3I_mRAAY6PjUP067Ii-275" target="VH3I_mRAAY6PjUP067Ii-277">
          <mxGeometry relative="1" as="geometry" />
        </mxCell>
        <mxCell id="VH3I_mRAAY6PjUP067Ii-330" style="edgeStyle=orthogonalEdgeStyle;rounded=0;orthogonalLoop=1;jettySize=auto;html=1;exitX=1;exitY=0.5;exitDx=0;exitDy=0;entryX=0;entryY=0.5;entryDx=0;entryDy=0;" edge="1" parent="1" source="VH3I_mRAAY6PjUP067Ii-275" target="VH3I_mRAAY6PjUP067Ii-276">
          <mxGeometry relative="1" as="geometry" />
        </mxCell>
        <mxCell id="VH3I_mRAAY6PjUP067Ii-275" value="expresion" style="whiteSpace=wrap;html=1;rounded=1;shape=label;perimeter=rectanglePerimeter;fillColor=#d5e8d4;strokeColor=#82b366;" vertex="1" parent="1">
          <mxGeometry x="-980" y="2610" width="120" height="60" as="geometry" />
        </mxCell>
        <mxCell id="VH3I_mRAAY6PjUP067Ii-276" value="&lt;div&gt;Termino&lt;/div&gt;" style="whiteSpace=wrap;html=1;rounded=1;shape=label;perimeter=rectanglePerimeter;fillColor=#d5e8d4;strokeColor=#82b366;" vertex="1" parent="1">
          <mxGeometry x="-670" y="1860" width="120" height="60" as="geometry" />
        </mxCell>
        <mxCell id="VH3I_mRAAY6PjUP067Ii-277" value="expresion" style="whiteSpace=wrap;html=1;rounded=1;shape=label;perimeter=rectanglePerimeter;fillColor=#d5e8d4;strokeColor=#82b366;" vertex="1" parent="1">
          <mxGeometry x="-670" y="1980" width="120" height="60" as="geometry" />
        </mxCell>
        <mxCell id="VH3I_mRAAY6PjUP067Ii-278" value="expresion" style="whiteSpace=wrap;html=1;rounded=1;shape=label;perimeter=rectanglePerimeter;fillColor=#d5e8d4;strokeColor=#82b366;" vertex="1" parent="1">
          <mxGeometry x="-430" y="1980" width="120" height="60" as="geometry" />
        </mxCell>
        <mxCell id="VH3I_mRAAY6PjUP067Ii-280" value="&lt;b&gt;+&lt;/b&gt;" style="whiteSpace=wrap;html=1;rounded=1;shape=hexagon;perimeter=hexagonPerimeter2;" vertex="1" parent="1">
          <mxGeometry x="-550" y="1980" width="120" height="60" as="geometry" />
        </mxCell>
        <mxCell id="VH3I_mRAAY6PjUP067Ii-281" value="expresion" style="whiteSpace=wrap;html=1;rounded=1;shape=label;perimeter=rectanglePerimeter;fillColor=#d5e8d4;strokeColor=#82b366;" vertex="1" parent="1">
          <mxGeometry x="-670" y="2090" width="120" height="60" as="geometry" />
        </mxCell>
        <mxCell id="VH3I_mRAAY6PjUP067Ii-282" value="expresion" style="whiteSpace=wrap;html=1;rounded=1;shape=label;perimeter=rectanglePerimeter;fillColor=#d5e8d4;strokeColor=#82b366;" vertex="1" parent="1">
          <mxGeometry x="-430" y="2090" width="120" height="60" as="geometry" />
        </mxCell>
        <mxCell id="VH3I_mRAAY6PjUP067Ii-283" value="&lt;b&gt;-&lt;/b&gt;" style="whiteSpace=wrap;html=1;rounded=1;shape=hexagon;perimeter=hexagonPerimeter2;" vertex="1" parent="1">
          <mxGeometry x="-550" y="2090" width="120" height="60" as="geometry" />
        </mxCell>
        <mxCell id="VH3I_mRAAY6PjUP067Ii-284" value="expresion" style="whiteSpace=wrap;html=1;rounded=1;shape=label;perimeter=rectanglePerimeter;fillColor=#d5e8d4;strokeColor=#82b366;" vertex="1" parent="1">
          <mxGeometry x="-670" y="2200" width="120" height="60" as="geometry" />
        </mxCell>
        <mxCell id="VH3I_mRAAY6PjUP067Ii-285" value="expresion" style="whiteSpace=wrap;html=1;rounded=1;shape=label;perimeter=rectanglePerimeter;fillColor=#d5e8d4;strokeColor=#82b366;" vertex="1" parent="1">
          <mxGeometry x="-430" y="2200" width="120" height="60" as="geometry" />
        </mxCell>
        <mxCell id="VH3I_mRAAY6PjUP067Ii-286" value="&lt;b&gt;*&lt;/b&gt;" style="whiteSpace=wrap;html=1;rounded=1;shape=hexagon;perimeter=hexagonPerimeter2;" vertex="1" parent="1">
          <mxGeometry x="-550" y="2200" width="120" height="60" as="geometry" />
        </mxCell>
        <mxCell id="VH3I_mRAAY6PjUP067Ii-287" value="expresion" style="whiteSpace=wrap;html=1;rounded=1;shape=label;perimeter=rectanglePerimeter;fillColor=#d5e8d4;strokeColor=#82b366;" vertex="1" parent="1">
          <mxGeometry x="-670" y="2330" width="120" height="60" as="geometry" />
        </mxCell>
        <mxCell id="VH3I_mRAAY6PjUP067Ii-288" value="expresion" style="whiteSpace=wrap;html=1;rounded=1;shape=label;perimeter=rectanglePerimeter;fillColor=#d5e8d4;strokeColor=#82b366;" vertex="1" parent="1">
          <mxGeometry x="-430" y="2330" width="120" height="60" as="geometry" />
        </mxCell>
        <mxCell id="VH3I_mRAAY6PjUP067Ii-289" value="&lt;b&gt;/&lt;/b&gt;" style="whiteSpace=wrap;html=1;rounded=1;shape=hexagon;perimeter=hexagonPerimeter2;" vertex="1" parent="1">
          <mxGeometry x="-550" y="2330" width="120" height="60" as="geometry" />
        </mxCell>
        <mxCell id="VH3I_mRAAY6PjUP067Ii-290" value="expresion" style="whiteSpace=wrap;html=1;rounded=1;shape=label;perimeter=rectanglePerimeter;fillColor=#d5e8d4;strokeColor=#82b366;" vertex="1" parent="1">
          <mxGeometry x="-670" y="2440" width="120" height="60" as="geometry" />
        </mxCell>
        <mxCell id="VH3I_mRAAY6PjUP067Ii-291" value="expresion" style="whiteSpace=wrap;html=1;rounded=1;shape=label;perimeter=rectanglePerimeter;fillColor=#d5e8d4;strokeColor=#82b366;" vertex="1" parent="1">
          <mxGeometry x="-430" y="2440" width="120" height="60" as="geometry" />
        </mxCell>
        <mxCell id="VH3I_mRAAY6PjUP067Ii-292" value="&lt;b&gt;%&lt;/b&gt;" style="whiteSpace=wrap;html=1;rounded=1;shape=hexagon;perimeter=hexagonPerimeter2;" vertex="1" parent="1">
          <mxGeometry x="-550" y="2440" width="120" height="60" as="geometry" />
        </mxCell>
        <mxCell id="VH3I_mRAAY6PjUP067Ii-293" value="expresion" style="whiteSpace=wrap;html=1;rounded=1;shape=label;perimeter=rectanglePerimeter;fillColor=#d5e8d4;strokeColor=#82b366;" vertex="1" parent="1">
          <mxGeometry x="-670" y="2550" width="120" height="60" as="geometry" />
        </mxCell>
        <mxCell id="VH3I_mRAAY6PjUP067Ii-294" value="expresion" style="whiteSpace=wrap;html=1;rounded=1;shape=label;perimeter=rectanglePerimeter;fillColor=#d5e8d4;strokeColor=#82b366;" vertex="1" parent="1">
          <mxGeometry x="-430" y="2550" width="120" height="60" as="geometry" />
        </mxCell>
        <mxCell id="VH3I_mRAAY6PjUP067Ii-295" value="&lt;b&gt;OR&lt;/b&gt;" style="whiteSpace=wrap;html=1;rounded=1;shape=hexagon;perimeter=hexagonPerimeter2;" vertex="1" parent="1">
          <mxGeometry x="-550" y="2550" width="120" height="60" as="geometry" />
        </mxCell>
        <mxCell id="VH3I_mRAAY6PjUP067Ii-296" value="expresion" style="whiteSpace=wrap;html=1;rounded=1;shape=label;perimeter=rectanglePerimeter;fillColor=#d5e8d4;strokeColor=#82b366;" vertex="1" parent="1">
          <mxGeometry x="-670" y="2660" width="120" height="60" as="geometry" />
        </mxCell>
        <mxCell id="VH3I_mRAAY6PjUP067Ii-297" value="expresion" style="whiteSpace=wrap;html=1;rounded=1;shape=label;perimeter=rectanglePerimeter;fillColor=#d5e8d4;strokeColor=#82b366;" vertex="1" parent="1">
          <mxGeometry x="-430" y="2660" width="120" height="60" as="geometry" />
        </mxCell>
        <mxCell id="VH3I_mRAAY6PjUP067Ii-298" value="&lt;b&gt;AND&lt;/b&gt;" style="whiteSpace=wrap;html=1;rounded=1;shape=hexagon;perimeter=hexagonPerimeter2;" vertex="1" parent="1">
          <mxGeometry x="-550" y="2660" width="120" height="60" as="geometry" />
        </mxCell>
        <mxCell id="VH3I_mRAAY6PjUP067Ii-299" value="expresion" style="whiteSpace=wrap;html=1;rounded=1;shape=label;perimeter=rectanglePerimeter;fillColor=#d5e8d4;strokeColor=#82b366;" vertex="1" parent="1">
          <mxGeometry x="-670" y="2780" width="120" height="60" as="geometry" />
        </mxCell>
        <mxCell id="VH3I_mRAAY6PjUP067Ii-300" value="expresion" style="whiteSpace=wrap;html=1;rounded=1;shape=label;perimeter=rectanglePerimeter;fillColor=#d5e8d4;strokeColor=#82b366;" vertex="1" parent="1">
          <mxGeometry x="-430" y="2780" width="120" height="60" as="geometry" />
        </mxCell>
        <mxCell id="VH3I_mRAAY6PjUP067Ii-301" value="&lt;b&gt;GREATER_EQUAL&lt;/b&gt;" style="whiteSpace=wrap;html=1;rounded=1;shape=hexagon;perimeter=hexagonPerimeter2;" vertex="1" parent="1">
          <mxGeometry x="-550" y="2780" width="120" height="60" as="geometry" />
        </mxCell>
        <mxCell id="VH3I_mRAAY6PjUP067Ii-302" value="expresion" style="whiteSpace=wrap;html=1;rounded=1;shape=label;perimeter=rectanglePerimeter;fillColor=#d5e8d4;strokeColor=#82b366;" vertex="1" parent="1">
          <mxGeometry x="-670" y="2880" width="120" height="60" as="geometry" />
        </mxCell>
        <mxCell id="VH3I_mRAAY6PjUP067Ii-303" value="expresion" style="whiteSpace=wrap;html=1;rounded=1;shape=label;perimeter=rectanglePerimeter;fillColor=#d5e8d4;strokeColor=#82b366;" vertex="1" parent="1">
          <mxGeometry x="-430" y="2880" width="120" height="60" as="geometry" />
        </mxCell>
        <mxCell id="VH3I_mRAAY6PjUP067Ii-304" value="&lt;b&gt;LESS_EQUAL&lt;/b&gt;" style="whiteSpace=wrap;html=1;rounded=1;shape=hexagon;perimeter=hexagonPerimeter2;" vertex="1" parent="1">
          <mxGeometry x="-550" y="2880" width="120" height="60" as="geometry" />
        </mxCell>
        <mxCell id="VH3I_mRAAY6PjUP067Ii-305" value="expresion" style="whiteSpace=wrap;html=1;rounded=1;shape=label;perimeter=rectanglePerimeter;fillColor=#d5e8d4;strokeColor=#82b366;" vertex="1" parent="1">
          <mxGeometry x="-670" y="3000" width="120" height="60" as="geometry" />
        </mxCell>
        <mxCell id="VH3I_mRAAY6PjUP067Ii-306" value="expresion" style="whiteSpace=wrap;html=1;rounded=1;shape=label;perimeter=rectanglePerimeter;fillColor=#d5e8d4;strokeColor=#82b366;" vertex="1" parent="1">
          <mxGeometry x="-430" y="3000" width="120" height="60" as="geometry" />
        </mxCell>
        <mxCell id="VH3I_mRAAY6PjUP067Ii-307" value="&lt;b&gt;EQUAL&lt;/b&gt;" style="whiteSpace=wrap;html=1;rounded=1;shape=hexagon;perimeter=hexagonPerimeter2;" vertex="1" parent="1">
          <mxGeometry x="-550" y="3000" width="120" height="60" as="geometry" />
        </mxCell>
        <mxCell id="VH3I_mRAAY6PjUP067Ii-308" value="expresion" style="whiteSpace=wrap;html=1;rounded=1;shape=label;perimeter=rectanglePerimeter;fillColor=#d5e8d4;strokeColor=#82b366;" vertex="1" parent="1">
          <mxGeometry x="-670" y="3120" width="120" height="60" as="geometry" />
        </mxCell>
        <mxCell id="VH3I_mRAAY6PjUP067Ii-309" value="expresion" style="whiteSpace=wrap;html=1;rounded=1;shape=label;perimeter=rectanglePerimeter;fillColor=#d5e8d4;strokeColor=#82b366;" vertex="1" parent="1">
          <mxGeometry x="-430" y="3120" width="120" height="60" as="geometry" />
        </mxCell>
        <mxCell id="VH3I_mRAAY6PjUP067Ii-310" value="&lt;b&gt;NOT_EQUAL&lt;/b&gt;" style="whiteSpace=wrap;html=1;rounded=1;shape=hexagon;perimeter=hexagonPerimeter2;" vertex="1" parent="1">
          <mxGeometry x="-550" y="3120" width="120" height="60" as="geometry" />
        </mxCell>
        <mxCell id="VH3I_mRAAY6PjUP067Ii-311" value="expresion" style="whiteSpace=wrap;html=1;rounded=1;shape=label;perimeter=rectanglePerimeter;fillColor=#d5e8d4;strokeColor=#82b366;" vertex="1" parent="1">
          <mxGeometry x="-670" y="3240" width="120" height="60" as="geometry" />
        </mxCell>
        <mxCell id="VH3I_mRAAY6PjUP067Ii-312" value="expresion" style="whiteSpace=wrap;html=1;rounded=1;shape=label;perimeter=rectanglePerimeter;fillColor=#d5e8d4;strokeColor=#82b366;" vertex="1" parent="1">
          <mxGeometry x="-430" y="3240" width="120" height="60" as="geometry" />
        </mxCell>
        <mxCell id="VH3I_mRAAY6PjUP067Ii-313" value="&lt;b&gt;&amp;gt;&lt;/b&gt;" style="whiteSpace=wrap;html=1;rounded=1;shape=hexagon;perimeter=hexagonPerimeter2;" vertex="1" parent="1">
          <mxGeometry x="-550" y="3240" width="120" height="60" as="geometry" />
        </mxCell>
        <mxCell id="VH3I_mRAAY6PjUP067Ii-314" value="expresion" style="whiteSpace=wrap;html=1;rounded=1;shape=label;perimeter=rectanglePerimeter;fillColor=#d5e8d4;strokeColor=#82b366;" vertex="1" parent="1">
          <mxGeometry x="-670" y="3340" width="120" height="60" as="geometry" />
        </mxCell>
        <mxCell id="VH3I_mRAAY6PjUP067Ii-315" value="expresion" style="whiteSpace=wrap;html=1;rounded=1;shape=label;perimeter=rectanglePerimeter;fillColor=#d5e8d4;strokeColor=#82b366;" vertex="1" parent="1">
          <mxGeometry x="-430" y="3340" width="120" height="60" as="geometry" />
        </mxCell>
        <mxCell id="VH3I_mRAAY6PjUP067Ii-316" value="&lt;b&gt;&amp;lt;&lt;/b&gt;" style="whiteSpace=wrap;html=1;rounded=1;shape=hexagon;perimeter=hexagonPerimeter2;" vertex="1" parent="1">
          <mxGeometry x="-550" y="3340" width="120" height="60" as="geometry" />
        </mxCell>
        <mxCell id="VH3I_mRAAY6PjUP067Ii-338" style="edgeStyle=orthogonalEdgeStyle;rounded=0;orthogonalLoop=1;jettySize=auto;html=1;exitX=1;exitY=0.5;exitDx=0;exitDy=0;entryX=0;entryY=0.5;entryDx=0;entryDy=0;" edge="1" parent="1" source="VH3I_mRAAY6PjUP067Ii-332" target="VH3I_mRAAY6PjUP067Ii-335">
          <mxGeometry relative="1" as="geometry" />
        </mxCell>
        <mxCell id="VH3I_mRAAY6PjUP067Ii-339" style="edgeStyle=orthogonalEdgeStyle;rounded=0;orthogonalLoop=1;jettySize=auto;html=1;exitX=1;exitY=0.5;exitDx=0;exitDy=0;entryX=0;entryY=0.5;entryDx=0;entryDy=0;" edge="1" parent="1" source="VH3I_mRAAY6PjUP067Ii-332" target="VH3I_mRAAY6PjUP067Ii-333">
          <mxGeometry relative="1" as="geometry" />
        </mxCell>
        <mxCell id="VH3I_mRAAY6PjUP067Ii-340" style="edgeStyle=orthogonalEdgeStyle;rounded=0;orthogonalLoop=1;jettySize=auto;html=1;exitX=1;exitY=0.5;exitDx=0;exitDy=0;entryX=0;entryY=0.5;entryDx=0;entryDy=0;" edge="1" parent="1" source="VH3I_mRAAY6PjUP067Ii-332" target="VH3I_mRAAY6PjUP067Ii-337">
          <mxGeometry relative="1" as="geometry" />
        </mxCell>
        <mxCell id="VH3I_mRAAY6PjUP067Ii-332" value="&lt;div&gt;Termino&lt;/div&gt;" style="whiteSpace=wrap;html=1;rounded=1;shape=label;perimeter=rectanglePerimeter;fillColor=#d5e8d4;strokeColor=#82b366;" vertex="1" parent="1">
          <mxGeometry x="-80" y="1980" width="120" height="60" as="geometry" />
        </mxCell>
        <mxCell id="VH3I_mRAAY6PjUP067Ii-333" value="Operando" style="whiteSpace=wrap;html=1;rounded=1;shape=label;perimeter=rectanglePerimeter;fillColor=#d5e8d4;strokeColor=#82b366;" vertex="1" parent="1">
          <mxGeometry x="110" y="1870" width="120" height="60" as="geometry" />
        </mxCell>
        <mxCell id="VH3I_mRAAY6PjUP067Ii-334" value="Operando" style="whiteSpace=wrap;html=1;rounded=1;shape=label;perimeter=rectanglePerimeter;fillColor=#d5e8d4;strokeColor=#82b366;" vertex="1" parent="1">
          <mxGeometry x="230" y="1980" width="120" height="60" as="geometry" />
        </mxCell>
        <mxCell id="VH3I_mRAAY6PjUP067Ii-335" value="&lt;b&gt;+&lt;/b&gt;" style="whiteSpace=wrap;html=1;rounded=1;shape=hexagon;perimeter=hexagonPerimeter2;" vertex="1" parent="1">
          <mxGeometry x="110" y="1980" width="120" height="60" as="geometry" />
        </mxCell>
        <mxCell id="VH3I_mRAAY6PjUP067Ii-336" value="Operando" style="whiteSpace=wrap;html=1;rounded=1;shape=label;perimeter=rectanglePerimeter;fillColor=#d5e8d4;strokeColor=#82b366;" vertex="1" parent="1">
          <mxGeometry x="230" y="2090" width="120" height="60" as="geometry" />
        </mxCell>
        <mxCell id="VH3I_mRAAY6PjUP067Ii-337" value="&lt;b&gt;-&lt;/b&gt;" style="whiteSpace=wrap;html=1;rounded=1;shape=hexagon;perimeter=hexagonPerimeter2;" vertex="1" parent="1">
          <mxGeometry x="110" y="2090" width="120" height="60" as="geometry" />
        </mxCell>
        <mxCell id="VH3I_mRAAY6PjUP067Ii-365" style="edgeStyle=orthogonalEdgeStyle;rounded=0;orthogonalLoop=1;jettySize=auto;html=1;exitX=1;exitY=0.5;exitDx=0;exitDy=0;entryX=0;entryY=0.5;entryDx=0;entryDy=0;" edge="1" parent="1" source="VH3I_mRAAY6PjUP067Ii-341" target="VH3I_mRAAY6PjUP067Ii-352">
          <mxGeometry relative="1" as="geometry" />
        </mxCell>
        <mxCell id="VH3I_mRAAY6PjUP067Ii-366" style="edgeStyle=orthogonalEdgeStyle;rounded=0;orthogonalLoop=1;jettySize=auto;html=1;exitX=1;exitY=0.5;exitDx=0;exitDy=0;entryX=0;entryY=0.5;entryDx=0;entryDy=0;" edge="1" parent="1" source="VH3I_mRAAY6PjUP067Ii-341" target="VH3I_mRAAY6PjUP067Ii-356">
          <mxGeometry relative="1" as="geometry" />
        </mxCell>
        <mxCell id="VH3I_mRAAY6PjUP067Ii-367" style="edgeStyle=orthogonalEdgeStyle;rounded=0;orthogonalLoop=1;jettySize=auto;html=1;exitX=1;exitY=0.5;exitDx=0;exitDy=0;entryX=0;entryY=0.5;entryDx=0;entryDy=0;" edge="1" parent="1" source="VH3I_mRAAY6PjUP067Ii-341" target="VH3I_mRAAY6PjUP067Ii-361">
          <mxGeometry relative="1" as="geometry" />
        </mxCell>
        <mxCell id="VH3I_mRAAY6PjUP067Ii-368" style="edgeStyle=orthogonalEdgeStyle;rounded=0;orthogonalLoop=1;jettySize=auto;html=1;exitX=1;exitY=0.5;exitDx=0;exitDy=0;entryX=0;entryY=0.5;entryDx=0;entryDy=0;" edge="1" parent="1" source="VH3I_mRAAY6PjUP067Ii-341" target="VH3I_mRAAY6PjUP067Ii-345">
          <mxGeometry relative="1" as="geometry" />
        </mxCell>
        <mxCell id="VH3I_mRAAY6PjUP067Ii-369" style="edgeStyle=orthogonalEdgeStyle;rounded=0;orthogonalLoop=1;jettySize=auto;html=1;exitX=1;exitY=0.5;exitDx=0;exitDy=0;entryX=0;entryY=0.5;entryDx=0;entryDy=0;" edge="1" parent="1" source="VH3I_mRAAY6PjUP067Ii-341" target="VH3I_mRAAY6PjUP067Ii-343">
          <mxGeometry relative="1" as="geometry" />
        </mxCell>
        <mxCell id="VH3I_mRAAY6PjUP067Ii-370" style="edgeStyle=orthogonalEdgeStyle;rounded=0;orthogonalLoop=1;jettySize=auto;html=1;exitX=1;exitY=0.5;exitDx=0;exitDy=0;entryX=0;entryY=0.5;entryDx=0;entryDy=0;" edge="1" parent="1" source="VH3I_mRAAY6PjUP067Ii-341" target="VH3I_mRAAY6PjUP067Ii-344">
          <mxGeometry relative="1" as="geometry" />
        </mxCell>
        <mxCell id="VH3I_mRAAY6PjUP067Ii-341" value="Operando" style="whiteSpace=wrap;html=1;rounded=1;shape=label;perimeter=rectanglePerimeter;fillColor=#d5e8d4;strokeColor=#82b366;" vertex="1" parent="1">
          <mxGeometry x="-140" y="2600" width="120" height="60" as="geometry" />
        </mxCell>
        <mxCell id="VH3I_mRAAY6PjUP067Ii-343" value="IDENTIF" style="whiteSpace=wrap;html=1;rounded=1;shape=hexagon;perimeter=hexagonPerimeter2;" vertex="1" parent="1">
          <mxGeometry x="100" y="2390" width="120" height="60" as="geometry" />
        </mxCell>
        <mxCell id="VH3I_mRAAY6PjUP067Ii-344" value="NUMBER" style="whiteSpace=wrap;html=1;rounded=1;shape=hexagon;perimeter=hexagonPerimeter2;" vertex="1" parent="1">
          <mxGeometry x="100" y="2290" width="120" height="60" as="geometry" />
        </mxCell>
        <mxCell id="VH3I_mRAAY6PjUP067Ii-345" value="IDENTIF" style="whiteSpace=wrap;html=1;rounded=1;shape=hexagon;perimeter=hexagonPerimeter2;" vertex="1" parent="1">
          <mxGeometry x="100" y="2480" width="120" height="60" as="geometry" />
        </mxCell>
        <mxCell id="VH3I_mRAAY6PjUP067Ii-346" value="&lt;b&gt;[&lt;/b&gt;" style="whiteSpace=wrap;html=1;rounded=1;shape=hexagon;perimeter=hexagonPerimeter2;" vertex="1" parent="1">
          <mxGeometry x="220" y="2480" width="120" height="60" as="geometry" />
        </mxCell>
        <mxCell id="VH3I_mRAAY6PjUP067Ii-347" value="expresion" style="whiteSpace=wrap;html=1;rounded=1;shape=label;perimeter=rectanglePerimeter;" vertex="1" parent="1">
          <mxGeometry x="340" y="2480" width="120" height="60" as="geometry" />
        </mxCell>
        <mxCell id="VH3I_mRAAY6PjUP067Ii-348" value="&lt;b&gt;]&lt;/b&gt;" style="whiteSpace=wrap;html=1;rounded=1;shape=hexagon;perimeter=hexagonPerimeter2;" vertex="1" parent="1">
          <mxGeometry x="460" y="2480" width="120" height="60" as="geometry" />
        </mxCell>
        <mxCell id="VH3I_mRAAY6PjUP067Ii-349" value="expresion" style="whiteSpace=wrap;html=1;rounded=1;shape=label;perimeter=rectanglePerimeter;" vertex="1" parent="1">
          <mxGeometry x="340" y="2480" width="120" height="60" as="geometry" />
        </mxCell>
        <mxCell id="VH3I_mRAAY6PjUP067Ii-350" value="expresion" style="whiteSpace=wrap;html=1;rounded=1;shape=label;perimeter=rectanglePerimeter;" vertex="1" parent="1">
          <mxGeometry x="340" y="2480" width="120" height="60" as="geometry" />
        </mxCell>
        <mxCell id="VH3I_mRAAY6PjUP067Ii-351" value="expresion" style="whiteSpace=wrap;html=1;rounded=1;shape=label;perimeter=rectanglePerimeter;fillColor=#d5e8d4;strokeColor=#82b366;" vertex="1" parent="1">
          <mxGeometry x="340" y="2480" width="120" height="60" as="geometry" />
        </mxCell>
        <mxCell id="VH3I_mRAAY6PjUP067Ii-352" value="IDENTIF" style="whiteSpace=wrap;html=1;rounded=1;shape=hexagon;perimeter=hexagonPerimeter2;" vertex="1" parent="1">
          <mxGeometry x="100" y="2600" width="120" height="60" as="geometry" />
        </mxCell>
        <mxCell id="VH3I_mRAAY6PjUP067Ii-353" value="&lt;b&gt;(&lt;/b&gt;" style="whiteSpace=wrap;html=1;rounded=1;shape=hexagon;perimeter=hexagonPerimeter2;" vertex="1" parent="1">
          <mxGeometry x="220" y="2600" width="120" height="60" as="geometry" />
        </mxCell>
        <mxCell id="VH3I_mRAAY6PjUP067Ii-355" value="&lt;b&gt;)&lt;/b&gt;" style="whiteSpace=wrap;html=1;rounded=1;shape=hexagon;perimeter=hexagonPerimeter2;" vertex="1" parent="1">
          <mxGeometry x="340" y="2600" width="120" height="60" as="geometry" />
        </mxCell>
        <mxCell id="VH3I_mRAAY6PjUP067Ii-356" value="IDENTIF" style="whiteSpace=wrap;html=1;rounded=1;shape=hexagon;perimeter=hexagonPerimeter2;" vertex="1" parent="1">
          <mxGeometry x="100" y="2720" width="120" height="60" as="geometry" />
        </mxCell>
        <mxCell id="VH3I_mRAAY6PjUP067Ii-357" value="&lt;b&gt;(&lt;/b&gt;" style="whiteSpace=wrap;html=1;rounded=1;shape=hexagon;perimeter=hexagonPerimeter2;" vertex="1" parent="1">
          <mxGeometry x="220" y="2720" width="120" height="60" as="geometry" />
        </mxCell>
        <mxCell id="VH3I_mRAAY6PjUP067Ii-358" value="&lt;b&gt;)&lt;/b&gt;" style="whiteSpace=wrap;html=1;rounded=1;shape=hexagon;perimeter=hexagonPerimeter2;" vertex="1" parent="1">
          <mxGeometry x="570" y="2720" width="120" height="60" as="geometry" />
        </mxCell>
        <mxCell id="VH3I_mRAAY6PjUP067Ii-359" value="expresion" style="whiteSpace=wrap;html=1;rounded=1;shape=label;perimeter=rectanglePerimeter;fillColor=#d5e8d4;strokeColor=#82b366;" vertex="1" parent="1">
          <mxGeometry x="330" y="2720" width="120" height="60" as="geometry" />
        </mxCell>
        <mxCell id="VH3I_mRAAY6PjUP067Ii-360" value="r_expresion" style="whiteSpace=wrap;html=1;rounded=1;shape=label;perimeter=rectanglePerimeter;fillColor=#d5e8d4;strokeColor=#82b366;" vertex="1" parent="1">
          <mxGeometry x="450" y="2720" width="120" height="60" as="geometry" />
        </mxCell>
        <mxCell id="VH3I_mRAAY6PjUP067Ii-361" value="&lt;b&gt;(&lt;/b&gt;" style="whiteSpace=wrap;html=1;rounded=1;shape=hexagon;perimeter=hexagonPerimeter2;" vertex="1" parent="1">
          <mxGeometry x="100" y="2840" width="120" height="60" as="geometry" />
        </mxCell>
        <mxCell id="VH3I_mRAAY6PjUP067Ii-362" value="&lt;b&gt;)&lt;/b&gt;" style="whiteSpace=wrap;html=1;rounded=1;shape=hexagon;perimeter=hexagonPerimeter2;" vertex="1" parent="1">
          <mxGeometry x="330" y="2840" width="120" height="60" as="geometry" />
        </mxCell>
        <mxCell id="VH3I_mRAAY6PjUP067Ii-363" value="expresion" style="whiteSpace=wrap;html=1;rounded=1;shape=label;perimeter=rectanglePerimeter;fillColor=#d5e8d4;strokeColor=#82b366;" vertex="1" parent="1">
          <mxGeometry x="210" y="2840" width="120" height="60" as="geometry" />
        </mxCell>
        <mxCell id="VH3I_mRAAY6PjUP067Ii-376" style="edgeStyle=orthogonalEdgeStyle;rounded=0;orthogonalLoop=1;jettySize=auto;html=1;exitX=1;exitY=0.5;exitDx=0;exitDy=0;entryX=0;entryY=0.5;entryDx=0;entryDy=0;" edge="1" parent="1" source="VH3I_mRAAY6PjUP067Ii-371" target="VH3I_mRAAY6PjUP067Ii-375">
          <mxGeometry relative="1" as="geometry" />
        </mxCell>
        <mxCell id="VH3I_mRAAY6PjUP067Ii-377" style="edgeStyle=orthogonalEdgeStyle;rounded=0;orthogonalLoop=1;jettySize=auto;html=1;exitX=1;exitY=0.5;exitDx=0;exitDy=0;entryX=0;entryY=0.5;entryDx=0;entryDy=0;" edge="1" parent="1" source="VH3I_mRAAY6PjUP067Ii-371" target="VH3I_mRAAY6PjUP067Ii-372">
          <mxGeometry relative="1" as="geometry" />
        </mxCell>
        <mxCell id="VH3I_mRAAY6PjUP067Ii-371" value="r_expresion" style="whiteSpace=wrap;html=1;rounded=1;shape=label;perimeter=rectanglePerimeter;fillColor=#d5e8d4;strokeColor=#82b366;" vertex="1" parent="1">
          <mxGeometry x="-140" y="3180" width="120" height="60" as="geometry" />
        </mxCell>
        <mxCell id="VH3I_mRAAY6PjUP067Ii-372" value="&lt;b&gt;,&lt;/b&gt;" style="whiteSpace=wrap;html=1;rounded=1;shape=hexagon;perimeter=hexagonPerimeter2;" vertex="1" parent="1">
          <mxGeometry x="100" y="3130" width="120" height="60" as="geometry" />
        </mxCell>
        <mxCell id="VH3I_mRAAY6PjUP067Ii-373" value="expresion" style="whiteSpace=wrap;html=1;rounded=1;shape=label;perimeter=rectanglePerimeter;fillColor=#d5e8d4;strokeColor=#82b366;" vertex="1" parent="1">
          <mxGeometry x="220" y="3130" width="120" height="60" as="geometry" />
        </mxCell>
        <mxCell id="VH3I_mRAAY6PjUP067Ii-374" value="r_expresion" style="whiteSpace=wrap;html=1;rounded=1;shape=label;perimeter=rectanglePerimeter;fillColor=#d5e8d4;strokeColor=#82b366;" vertex="1" parent="1">
          <mxGeometry x="340" y="3130" width="120" height="60" as="geometry" />
        </mxCell>
        <mxCell id="VH3I_mRAAY6PjUP067Ii-375" value="Lambda" style="rounded=1;whiteSpace=wrap;html=1;shape=hexagon;perimeter=hexagonPerimeter2;" vertex="1" parent="1">
          <mxGeometry x="100" y="3240" width="120" height="60" as="geometry" />
        </mxCell>
        <mxCell id="VH3I_mRAAY6PjUP067Ii-460" style="edgeStyle=orthogonalEdgeStyle;rounded=0;orthogonalLoop=1;jettySize=auto;html=1;exitX=1;exitY=0.5;exitDx=0;exitDy=0;entryX=0;entryY=0.5;entryDx=0;entryDy=0;" edge="1" parent="1" source="VH3I_mRAAY6PjUP067Ii-378" target="VH3I_mRAAY6PjUP067Ii-428">
          <mxGeometry relative="1" as="geometry" />
        </mxCell>
        <mxCell id="VH3I_mRAAY6PjUP067Ii-462" style="edgeStyle=orthogonalEdgeStyle;rounded=0;orthogonalLoop=1;jettySize=auto;html=1;exitX=1;exitY=0.5;exitDx=0;exitDy=0;entryX=0;entryY=0.5;entryDx=0;entryDy=0;" edge="1" parent="1" source="VH3I_mRAAY6PjUP067Ii-378" target="VH3I_mRAAY6PjUP067Ii-385">
          <mxGeometry relative="1" as="geometry" />
        </mxCell>
        <mxCell id="VH3I_mRAAY6PjUP067Ii-463" style="edgeStyle=orthogonalEdgeStyle;rounded=0;orthogonalLoop=1;jettySize=auto;html=1;exitX=1;exitY=0.5;exitDx=0;exitDy=0;entryX=0;entryY=0.5;entryDx=0;entryDy=0;" edge="1" parent="1" source="VH3I_mRAAY6PjUP067Ii-378" target="VH3I_mRAAY6PjUP067Ii-391">
          <mxGeometry relative="1" as="geometry">
            <Array as="points">
              <mxPoint x="1150" y="2830" />
              <mxPoint x="1150" y="2930" />
            </Array>
          </mxGeometry>
        </mxCell>
        <mxCell id="VH3I_mRAAY6PjUP067Ii-464" style="edgeStyle=orthogonalEdgeStyle;rounded=0;orthogonalLoop=1;jettySize=auto;html=1;exitX=1;exitY=0.5;exitDx=0;exitDy=0;entryX=0;entryY=0.5;entryDx=0;entryDy=0;" edge="1" parent="1" source="VH3I_mRAAY6PjUP067Ii-378" target="VH3I_mRAAY6PjUP067Ii-382">
          <mxGeometry relative="1" as="geometry" />
        </mxCell>
        <mxCell id="VH3I_mRAAY6PjUP067Ii-465" style="edgeStyle=orthogonalEdgeStyle;rounded=0;orthogonalLoop=1;jettySize=auto;html=1;exitX=1;exitY=0.5;exitDx=0;exitDy=0;entryX=0;entryY=0.5;entryDx=0;entryDy=0;" edge="1" parent="1" source="VH3I_mRAAY6PjUP067Ii-378" target="VH3I_mRAAY6PjUP067Ii-379">
          <mxGeometry relative="1" as="geometry" />
        </mxCell>
        <mxCell id="VH3I_mRAAY6PjUP067Ii-466" style="edgeStyle=orthogonalEdgeStyle;rounded=0;orthogonalLoop=1;jettySize=auto;html=1;exitX=1;exitY=0.5;exitDx=0;exitDy=0;entryX=0;entryY=0.5;entryDx=0;entryDy=0;" edge="1" parent="1" source="VH3I_mRAAY6PjUP067Ii-378" target="VH3I_mRAAY6PjUP067Ii-388">
          <mxGeometry relative="1" as="geometry" />
        </mxCell>
        <mxCell id="VH3I_mRAAY6PjUP067Ii-467" style="edgeStyle=orthogonalEdgeStyle;rounded=0;orthogonalLoop=1;jettySize=auto;html=1;exitX=1;exitY=0.5;exitDx=0;exitDy=0;entryX=0;entryY=0.5;entryDx=0;entryDy=0;" edge="1" parent="1" source="VH3I_mRAAY6PjUP067Ii-378" target="VH3I_mRAAY6PjUP067Ii-404">
          <mxGeometry relative="1" as="geometry" />
        </mxCell>
        <mxCell id="VH3I_mRAAY6PjUP067Ii-468" style="edgeStyle=orthogonalEdgeStyle;rounded=0;orthogonalLoop=1;jettySize=auto;html=1;exitX=1;exitY=0.5;exitDx=0;exitDy=0;entryX=0;entryY=0.5;entryDx=0;entryDy=0;" edge="1" parent="1" source="VH3I_mRAAY6PjUP067Ii-378" target="VH3I_mRAAY6PjUP067Ii-437">
          <mxGeometry relative="1" as="geometry" />
        </mxCell>
        <mxCell id="VH3I_mRAAY6PjUP067Ii-469" style="edgeStyle=orthogonalEdgeStyle;rounded=0;orthogonalLoop=1;jettySize=auto;html=1;exitX=1;exitY=0.5;exitDx=0;exitDy=0;entryX=0;entryY=0.5;entryDx=0;entryDy=0;" edge="1" parent="1" source="VH3I_mRAAY6PjUP067Ii-378" target="VH3I_mRAAY6PjUP067Ii-448">
          <mxGeometry relative="1" as="geometry" />
        </mxCell>
        <mxCell id="VH3I_mRAAY6PjUP067Ii-378" value="body" style="whiteSpace=wrap;html=1;rounded=1;shape=label;perimeter=rectanglePerimeter;fillColor=#d5e8d4;strokeColor=#82b366;" vertex="1" parent="1">
          <mxGeometry x="970" y="2800" width="120" height="60" as="geometry" />
        </mxCell>
        <mxCell id="VH3I_mRAAY6PjUP067Ii-379" value="sentencia" style="whiteSpace=wrap;html=1;rounded=1;shape=label;perimeter=rectanglePerimeter;fillColor=#d5e8d4;strokeColor=#82b366;" vertex="1" parent="1">
          <mxGeometry x="1210" y="2470" width="120" height="60" as="geometry" />
        </mxCell>
        <mxCell id="VH3I_mRAAY6PjUP067Ii-380" value="&lt;b&gt;;&lt;/b&gt;" style="whiteSpace=wrap;html=1;rounded=1;shape=hexagon;perimeter=hexagonPerimeter2;" vertex="1" parent="1">
          <mxGeometry x="1330" y="2470" width="120" height="60" as="geometry" />
        </mxCell>
        <mxCell id="VH3I_mRAAY6PjUP067Ii-381" value="r_body" style="whiteSpace=wrap;html=1;rounded=1;shape=label;perimeter=rectanglePerimeter;fillColor=#d5e8d4;strokeColor=#82b366;" vertex="1" parent="1">
          <mxGeometry x="1450" y="2470" width="120" height="60" as="geometry" />
        </mxCell>
        <mxCell id="VH3I_mRAAY6PjUP067Ii-382" value="declaracion" style="whiteSpace=wrap;html=1;rounded=1;shape=label;perimeter=rectanglePerimeter;fillColor=#d5e8d4;strokeColor=#82b366;" vertex="1" parent="1">
          <mxGeometry x="1210" y="2580" width="120" height="60" as="geometry" />
        </mxCell>
        <mxCell id="VH3I_mRAAY6PjUP067Ii-383" value="&lt;b&gt;;&lt;/b&gt;" style="whiteSpace=wrap;html=1;rounded=1;shape=hexagon;perimeter=hexagonPerimeter2;" vertex="1" parent="1">
          <mxGeometry x="1330" y="2580" width="120" height="60" as="geometry" />
        </mxCell>
        <mxCell id="VH3I_mRAAY6PjUP067Ii-384" value="r_body" style="whiteSpace=wrap;html=1;rounded=1;shape=label;perimeter=rectanglePerimeter;fillColor=#d5e8d4;strokeColor=#82b366;" vertex="1" parent="1">
          <mxGeometry x="1450" y="2580" width="120" height="60" as="geometry" />
        </mxCell>
        <mxCell id="VH3I_mRAAY6PjUP067Ii-385" value="expresion" style="whiteSpace=wrap;html=1;rounded=1;shape=label;perimeter=rectanglePerimeter;fillColor=#d5e8d4;strokeColor=#82b366;" vertex="1" parent="1">
          <mxGeometry x="1210" y="2690" width="120" height="60" as="geometry" />
        </mxCell>
        <mxCell id="VH3I_mRAAY6PjUP067Ii-386" value="&lt;b&gt;;&lt;/b&gt;" style="whiteSpace=wrap;html=1;rounded=1;shape=hexagon;perimeter=hexagonPerimeter2;" vertex="1" parent="1">
          <mxGeometry x="1330" y="2690" width="120" height="60" as="geometry" />
        </mxCell>
        <mxCell id="VH3I_mRAAY6PjUP067Ii-387" value="r_body" style="whiteSpace=wrap;html=1;rounded=1;shape=label;perimeter=rectanglePerimeter;fillColor=#d5e8d4;strokeColor=#82b366;" vertex="1" parent="1">
          <mxGeometry x="1450" y="2690" width="120" height="60" as="geometry" />
        </mxCell>
        <mxCell id="VH3I_mRAAY6PjUP067Ii-388" value="lets" style="whiteSpace=wrap;html=1;rounded=1;shape=label;perimeter=rectanglePerimeter;fillColor=#d5e8d4;strokeColor=#82b366;" vertex="1" parent="1">
          <mxGeometry x="1210" y="2360" width="120" height="60" as="geometry" />
        </mxCell>
        <mxCell id="VH3I_mRAAY6PjUP067Ii-390" value="r_body" style="whiteSpace=wrap;html=1;rounded=1;shape=label;perimeter=rectanglePerimeter;fillColor=#d5e8d4;strokeColor=#82b366;" vertex="1" parent="1">
          <mxGeometry x="1330" y="2360" width="120" height="60" as="geometry" />
        </mxCell>
        <mxCell id="VH3I_mRAAY6PjUP067Ii-391" value="IF" style="whiteSpace=wrap;html=1;rounded=1;shape=hexagon;perimeter=hexagonPerimeter2;" vertex="1" parent="1">
          <mxGeometry x="1215" y="2900" width="120" height="60" as="geometry" />
        </mxCell>
        <mxCell id="VH3I_mRAAY6PjUP067Ii-392" value="&lt;b&gt;(&lt;/b&gt;" style="whiteSpace=wrap;html=1;rounded=1;shape=hexagon;perimeter=hexagonPerimeter2;" vertex="1" parent="1">
          <mxGeometry x="1335" y="2900" width="120" height="60" as="geometry" />
        </mxCell>
        <mxCell id="VH3I_mRAAY6PjUP067Ii-393" value="&lt;b&gt;)&lt;/b&gt;" style="whiteSpace=wrap;html=1;rounded=1;shape=hexagon;perimeter=hexagonPerimeter2;" vertex="1" parent="1">
          <mxGeometry x="1565" y="2900" width="120" height="60" as="geometry" />
        </mxCell>
        <mxCell id="VH3I_mRAAY6PjUP067Ii-394" value="expresion" style="whiteSpace=wrap;html=1;rounded=1;shape=label;perimeter=rectanglePerimeter;fillColor=#d5e8d4;strokeColor=#82b366;" vertex="1" parent="1">
          <mxGeometry x="1445" y="2900" width="120" height="60" as="geometry" />
        </mxCell>
        <mxCell id="VH3I_mRAAY6PjUP067Ii-400" value="&lt;b&gt;{&lt;/b&gt;" style="whiteSpace=wrap;html=1;rounded=1;shape=hexagon;perimeter=hexagonPerimeter2;" vertex="1" parent="1">
          <mxGeometry x="1680" y="2900" width="120" height="60" as="geometry" />
        </mxCell>
        <mxCell id="VH3I_mRAAY6PjUP067Ii-401" value="&lt;b&gt;}&lt;/b&gt;" style="whiteSpace=wrap;html=1;rounded=1;shape=hexagon;perimeter=hexagonPerimeter2;" vertex="1" parent="1">
          <mxGeometry x="1910" y="2900" width="120" height="60" as="geometry" />
        </mxCell>
        <mxCell id="VH3I_mRAAY6PjUP067Ii-402" value="expresion" style="whiteSpace=wrap;html=1;rounded=1;shape=label;perimeter=rectanglePerimeter;fillColor=#d5e8d4;strokeColor=#82b366;" vertex="1" parent="1">
          <mxGeometry x="1790" y="2900" width="120" height="60" as="geometry" />
        </mxCell>
        <mxCell id="VH3I_mRAAY6PjUP067Ii-403" value="r_body" style="whiteSpace=wrap;html=1;rounded=1;shape=label;perimeter=rectanglePerimeter;fillColor=#d5e8d4;strokeColor=#82b366;" vertex="1" parent="1">
          <mxGeometry x="2030" y="2900" width="120" height="60" as="geometry" />
        </mxCell>
        <mxCell id="VH3I_mRAAY6PjUP067Ii-404" value="IF" style="whiteSpace=wrap;html=1;rounded=1;shape=hexagon;perimeter=hexagonPerimeter2;" vertex="1" parent="1">
          <mxGeometry x="1210" y="3000" width="120" height="60" as="geometry" />
        </mxCell>
        <mxCell id="VH3I_mRAAY6PjUP067Ii-405" value="&lt;b&gt;(&lt;/b&gt;" style="whiteSpace=wrap;html=1;rounded=1;shape=hexagon;perimeter=hexagonPerimeter2;" vertex="1" parent="1">
          <mxGeometry x="1330" y="3000" width="120" height="60" as="geometry" />
        </mxCell>
        <mxCell id="VH3I_mRAAY6PjUP067Ii-406" value="&lt;b&gt;)&lt;/b&gt;" style="whiteSpace=wrap;html=1;rounded=1;shape=hexagon;perimeter=hexagonPerimeter2;" vertex="1" parent="1">
          <mxGeometry x="1560" y="3000" width="120" height="60" as="geometry" />
        </mxCell>
        <mxCell id="VH3I_mRAAY6PjUP067Ii-407" value="expresion" style="whiteSpace=wrap;html=1;rounded=1;shape=label;perimeter=rectanglePerimeter;fillColor=#d5e8d4;strokeColor=#82b366;" vertex="1" parent="1">
          <mxGeometry x="1440" y="3000" width="120" height="60" as="geometry" />
        </mxCell>
        <mxCell id="VH3I_mRAAY6PjUP067Ii-412" value="&lt;b&gt;{&lt;/b&gt;" style="whiteSpace=wrap;html=1;rounded=1;shape=hexagon;perimeter=hexagonPerimeter2;" vertex="1" parent="1">
          <mxGeometry x="1675" y="3000" width="120" height="60" as="geometry" />
        </mxCell>
        <mxCell id="VH3I_mRAAY6PjUP067Ii-413" value="&lt;b&gt;}&lt;/b&gt;" style="whiteSpace=wrap;html=1;rounded=1;shape=hexagon;perimeter=hexagonPerimeter2;" vertex="1" parent="1">
          <mxGeometry x="1905" y="3000" width="120" height="60" as="geometry" />
        </mxCell>
        <mxCell id="VH3I_mRAAY6PjUP067Ii-414" value="expresion" style="whiteSpace=wrap;html=1;rounded=1;shape=label;perimeter=rectanglePerimeter;fillColor=#d5e8d4;strokeColor=#82b366;" vertex="1" parent="1">
          <mxGeometry x="1785" y="3000" width="120" height="60" as="geometry" />
        </mxCell>
        <mxCell id="VH3I_mRAAY6PjUP067Ii-415" value="ELSE" style="whiteSpace=wrap;html=1;rounded=1;shape=hexagon;perimeter=hexagonPerimeter2;fillColor=default;strokeColor=default;" vertex="1" parent="1">
          <mxGeometry x="2025" y="3000" width="120" height="60" as="geometry" />
        </mxCell>
        <mxCell id="VH3I_mRAAY6PjUP067Ii-424" value="&lt;b&gt;{&lt;/b&gt;" style="whiteSpace=wrap;html=1;rounded=1;shape=hexagon;perimeter=hexagonPerimeter2;" vertex="1" parent="1">
          <mxGeometry x="2150" y="3000" width="120" height="60" as="geometry" />
        </mxCell>
        <mxCell id="VH3I_mRAAY6PjUP067Ii-425" value="&lt;b&gt;}&lt;/b&gt;" style="whiteSpace=wrap;html=1;rounded=1;shape=hexagon;perimeter=hexagonPerimeter2;" vertex="1" parent="1">
          <mxGeometry x="2380" y="3000" width="120" height="60" as="geometry" />
        </mxCell>
        <mxCell id="VH3I_mRAAY6PjUP067Ii-426" value="expresion" style="whiteSpace=wrap;html=1;rounded=1;shape=label;perimeter=rectanglePerimeter;fillColor=#d5e8d4;strokeColor=#82b366;" vertex="1" parent="1">
          <mxGeometry x="2260" y="3000" width="120" height="60" as="geometry" />
        </mxCell>
        <mxCell id="VH3I_mRAAY6PjUP067Ii-427" value="r_body" style="whiteSpace=wrap;html=1;rounded=1;shape=label;perimeter=rectanglePerimeter;fillColor=#d5e8d4;strokeColor=#82b366;" vertex="1" parent="1">
          <mxGeometry x="2500" y="3000" width="120" height="60" as="geometry" />
        </mxCell>
        <mxCell id="VH3I_mRAAY6PjUP067Ii-428" value="WHILE" style="whiteSpace=wrap;html=1;rounded=1;shape=hexagon;perimeter=hexagonPerimeter2;" vertex="1" parent="1">
          <mxGeometry x="1210" y="2800" width="120" height="60" as="geometry" />
        </mxCell>
        <mxCell id="VH3I_mRAAY6PjUP067Ii-429" value="&lt;b&gt;(&lt;/b&gt;" style="whiteSpace=wrap;html=1;rounded=1;shape=hexagon;perimeter=hexagonPerimeter2;" vertex="1" parent="1">
          <mxGeometry x="1330" y="2800" width="120" height="60" as="geometry" />
        </mxCell>
        <mxCell id="VH3I_mRAAY6PjUP067Ii-430" value="&lt;b&gt;)&lt;/b&gt;" style="whiteSpace=wrap;html=1;rounded=1;shape=hexagon;perimeter=hexagonPerimeter2;" vertex="1" parent="1">
          <mxGeometry x="1560" y="2800" width="120" height="60" as="geometry" />
        </mxCell>
        <mxCell id="VH3I_mRAAY6PjUP067Ii-431" value="expresion" style="whiteSpace=wrap;html=1;rounded=1;shape=label;perimeter=rectanglePerimeter;fillColor=#d5e8d4;strokeColor=#82b366;" vertex="1" parent="1">
          <mxGeometry x="1440" y="2800" width="120" height="60" as="geometry" />
        </mxCell>
        <mxCell id="VH3I_mRAAY6PjUP067Ii-432" value="&lt;b&gt;{&lt;/b&gt;" style="whiteSpace=wrap;html=1;rounded=1;shape=hexagon;perimeter=hexagonPerimeter2;" vertex="1" parent="1">
          <mxGeometry x="1675" y="2800" width="120" height="60" as="geometry" />
        </mxCell>
        <mxCell id="VH3I_mRAAY6PjUP067Ii-433" value="&lt;b&gt;}&lt;/b&gt;" style="whiteSpace=wrap;html=1;rounded=1;shape=hexagon;perimeter=hexagonPerimeter2;" vertex="1" parent="1">
          <mxGeometry x="1905" y="2800" width="120" height="60" as="geometry" />
        </mxCell>
        <mxCell id="VH3I_mRAAY6PjUP067Ii-434" value="expresion" style="whiteSpace=wrap;html=1;rounded=1;shape=label;perimeter=rectanglePerimeter;fillColor=#d5e8d4;strokeColor=#82b366;" vertex="1" parent="1">
          <mxGeometry x="1785" y="2800" width="120" height="60" as="geometry" />
        </mxCell>
        <mxCell id="VH3I_mRAAY6PjUP067Ii-435" value="r_body" style="whiteSpace=wrap;html=1;rounded=1;shape=label;perimeter=rectanglePerimeter;fillColor=#d5e8d4;strokeColor=#82b366;" vertex="1" parent="1">
          <mxGeometry x="2025" y="2800" width="120" height="60" as="geometry" />
        </mxCell>
        <mxCell id="VH3I_mRAAY6PjUP067Ii-437" value="&lt;b&gt;RETRUN&lt;/b&gt;" style="whiteSpace=wrap;html=1;rounded=1;shape=hexagon;perimeter=hexagonPerimeter2;" vertex="1" parent="1">
          <mxGeometry x="1210" y="3120" width="120" height="60" as="geometry" />
        </mxCell>
        <mxCell id="VH3I_mRAAY6PjUP067Ii-438" value="&lt;b&gt;;&lt;/b&gt;" style="whiteSpace=wrap;html=1;rounded=1;shape=hexagon;perimeter=hexagonPerimeter2;" vertex="1" parent="1">
          <mxGeometry x="1580" y="3120" width="120" height="60" as="geometry" />
        </mxCell>
        <mxCell id="VH3I_mRAAY6PjUP067Ii-439" value="expresion" style="whiteSpace=wrap;html=1;rounded=1;shape=label;perimeter=rectanglePerimeter;fillColor=#d5e8d4;strokeColor=#82b366;" vertex="1" parent="1">
          <mxGeometry x="1335" y="3120" width="120" height="60" as="geometry" />
        </mxCell>
        <mxCell id="VH3I_mRAAY6PjUP067Ii-443" value="r_body" style="whiteSpace=wrap;html=1;rounded=1;shape=label;perimeter=rectanglePerimeter;fillColor=#d5e8d4;strokeColor=#82b366;" vertex="1" parent="1">
          <mxGeometry x="1700" y="3120" width="120" height="60" as="geometry" />
        </mxCell>
        <mxCell id="VH3I_mRAAY6PjUP067Ii-447" value="r_expresion" style="whiteSpace=wrap;html=1;rounded=1;shape=label;perimeter=rectanglePerimeter;fillColor=#d5e8d4;strokeColor=#82b366;" vertex="1" parent="1">
          <mxGeometry x="1460" y="3120" width="120" height="60" as="geometry" />
        </mxCell>
        <mxCell id="VH3I_mRAAY6PjUP067Ii-448" value="FOR" style="whiteSpace=wrap;html=1;rounded=1;shape=hexagon;perimeter=hexagonPerimeter2;" vertex="1" parent="1">
          <mxGeometry x="1210" y="3240" width="120" height="60" as="geometry" />
        </mxCell>
        <mxCell id="VH3I_mRAAY6PjUP067Ii-449" value="&lt;b&gt;(&lt;/b&gt;" style="whiteSpace=wrap;html=1;rounded=1;shape=hexagon;perimeter=hexagonPerimeter2;" vertex="1" parent="1">
          <mxGeometry x="1330" y="3240" width="120" height="60" as="geometry" />
        </mxCell>
        <mxCell id="VH3I_mRAAY6PjUP067Ii-450" value="&lt;b&gt;)&lt;/b&gt;" style="whiteSpace=wrap;html=1;rounded=1;shape=hexagon;perimeter=hexagonPerimeter2;" vertex="1" parent="1">
          <mxGeometry x="2050" y="3240" width="120" height="60" as="geometry" />
        </mxCell>
        <mxCell id="VH3I_mRAAY6PjUP067Ii-451" value="declaracion" style="whiteSpace=wrap;html=1;rounded=1;shape=label;perimeter=rectanglePerimeter;fillColor=#d5e8d4;strokeColor=#82b366;" vertex="1" parent="1">
          <mxGeometry x="1450" y="3240" width="120" height="60" as="geometry" />
        </mxCell>
        <mxCell id="VH3I_mRAAY6PjUP067Ii-454" value="lets" style="whiteSpace=wrap;html=1;rounded=1;shape=label;perimeter=rectanglePerimeter;fillColor=#d5e8d4;strokeColor=#82b366;" vertex="1" parent="1">
          <mxGeometry x="2170" y="3240" width="120" height="60" as="geometry" />
        </mxCell>
        <mxCell id="VH3I_mRAAY6PjUP067Ii-455" value="r_body" style="whiteSpace=wrap;html=1;rounded=1;shape=label;perimeter=rectanglePerimeter;fillColor=#d5e8d4;strokeColor=#82b366;" vertex="1" parent="1">
          <mxGeometry x="2290" y="3240" width="120" height="60" as="geometry" />
        </mxCell>
        <mxCell id="VH3I_mRAAY6PjUP067Ii-456" value="&lt;b&gt;;&lt;/b&gt;" style="whiteSpace=wrap;html=1;rounded=1;shape=hexagon;perimeter=hexagonPerimeter2;" vertex="1" parent="1">
          <mxGeometry x="1570" y="3240" width="120" height="60" as="geometry" />
        </mxCell>
        <mxCell id="VH3I_mRAAY6PjUP067Ii-457" value="expresion" style="whiteSpace=wrap;html=1;rounded=1;shape=label;perimeter=rectanglePerimeter;fillColor=#d5e8d4;strokeColor=#82b366;" vertex="1" parent="1">
          <mxGeometry x="1690" y="3240" width="120" height="60" as="geometry" />
        </mxCell>
        <mxCell id="VH3I_mRAAY6PjUP067Ii-458" value="&lt;b&gt;;&lt;/b&gt;" style="whiteSpace=wrap;html=1;rounded=1;shape=hexagon;perimeter=hexagonPerimeter2;" vertex="1" parent="1">
          <mxGeometry x="1810" y="3240" width="120" height="60" as="geometry" />
        </mxCell>
        <mxCell id="VH3I_mRAAY6PjUP067Ii-459" value="incremento" style="whiteSpace=wrap;html=1;rounded=1;shape=label;perimeter=rectanglePerimeter;fillColor=#d5e8d4;strokeColor=#82b366;" vertex="1" parent="1">
          <mxGeometry x="1930" y="3240" width="120" height="60" as="geometry" />
        </mxCell>
        <mxCell id="VH3I_mRAAY6PjUP067Ii-470" value="Lambda" style="rounded=1;whiteSpace=wrap;html=1;shape=hexagon;perimeter=hexagonPerimeter2;" vertex="1" parent="1">
          <mxGeometry x="1770" y="2600" width="120" height="60" as="geometry" />
        </mxCell>
        <mxCell id="VH3I_mRAAY6PjUP067Ii-471" value="body" style="whiteSpace=wrap;html=1;rounded=1;shape=label;perimeter=rectanglePerimeter;fillColor=#d5e8d4;strokeColor=#82b366;" vertex="1" parent="1">
          <mxGeometry x="1975" y="2600" width="120" height="60" as="geometry" />
        </mxCell>
        <mxCell id="VH3I_mRAAY6PjUP067Ii-473" style="edgeStyle=orthogonalEdgeStyle;rounded=0;orthogonalLoop=1;jettySize=auto;html=1;exitX=0.5;exitY=1;exitDx=0;exitDy=0;entryX=0.5;entryY=0;entryDx=0;entryDy=0;" edge="1" parent="1" source="VH3I_mRAAY6PjUP067Ii-472" target="VH3I_mRAAY6PjUP067Ii-471">
          <mxGeometry relative="1" as="geometry" />
        </mxCell>
        <mxCell id="VH3I_mRAAY6PjUP067Ii-474" style="edgeStyle=orthogonalEdgeStyle;rounded=0;orthogonalLoop=1;jettySize=auto;html=1;exitX=0.5;exitY=1;exitDx=0;exitDy=0;entryX=0.5;entryY=0;entryDx=0;entryDy=0;" edge="1" parent="1" source="VH3I_mRAAY6PjUP067Ii-472" target="VH3I_mRAAY6PjUP067Ii-470">
          <mxGeometry relative="1" as="geometry" />
        </mxCell>
        <mxCell id="VH3I_mRAAY6PjUP067Ii-472" value="r_body" style="whiteSpace=wrap;html=1;rounded=1;shape=label;perimeter=rectanglePerimeter;fillColor=#d5e8d4;strokeColor=#82b366;" vertex="1" parent="1">
          <mxGeometry x="1870" y="2490" width="120" height="60" as="geometry" />
        </mxCell>
        <mxCell id="VH3I_mRAAY6PjUP067Ii-509" style="edgeStyle=orthogonalEdgeStyle;rounded=0;orthogonalLoop=1;jettySize=auto;html=1;exitX=1;exitY=0.5;exitDx=0;exitDy=0;entryX=0;entryY=0.5;entryDx=0;entryDy=0;" edge="1" parent="1" source="VH3I_mRAAY6PjUP067Ii-488" target="VH3I_mRAAY6PjUP067Ii-489">
          <mxGeometry relative="1" as="geometry" />
        </mxCell>
        <mxCell id="VH3I_mRAAY6PjUP067Ii-510" style="edgeStyle=orthogonalEdgeStyle;rounded=0;orthogonalLoop=1;jettySize=auto;html=1;exitX=1;exitY=0.5;exitDx=0;exitDy=0;entryX=0;entryY=0.5;entryDx=0;entryDy=0;" edge="1" parent="1" source="VH3I_mRAAY6PjUP067Ii-488" target="VH3I_mRAAY6PjUP067Ii-495">
          <mxGeometry relative="1" as="geometry" />
        </mxCell>
        <mxCell id="VH3I_mRAAY6PjUP067Ii-511" style="edgeStyle=orthogonalEdgeStyle;rounded=0;orthogonalLoop=1;jettySize=auto;html=1;exitX=1;exitY=0.5;exitDx=0;exitDy=0;entryX=0;entryY=0.5;entryDx=0;entryDy=0;" edge="1" parent="1" source="VH3I_mRAAY6PjUP067Ii-488" target="VH3I_mRAAY6PjUP067Ii-493">
          <mxGeometry relative="1" as="geometry" />
        </mxCell>
        <mxCell id="VH3I_mRAAY6PjUP067Ii-488" value="declaracion" style="rounded=1;whiteSpace=wrap;html=1;fillColor=#d5e8d4;strokeColor=#82b366;" vertex="1" parent="1">
          <mxGeometry x="2440" y="2600" width="120" height="60" as="geometry" />
        </mxCell>
        <mxCell id="VH3I_mRAAY6PjUP067Ii-489" value="IDENTIF" style="whiteSpace=wrap;html=1;rounded=1;shape=hexagon;perimeter=hexagonPerimeter2;" vertex="1" parent="1">
          <mxGeometry x="2690" y="2600" width="120" height="60" as="geometry" />
        </mxCell>
        <mxCell id="VH3I_mRAAY6PjUP067Ii-490" value="&lt;b&gt;=&lt;/b&gt;" style="whiteSpace=wrap;html=1;rounded=1;shape=hexagon;perimeter=hexagonPerimeter2;" vertex="1" parent="1">
          <mxGeometry x="2810" y="2600" width="120" height="60" as="geometry" />
        </mxCell>
        <mxCell id="VH3I_mRAAY6PjUP067Ii-491" value="expresion" style="whiteSpace=wrap;html=1;rounded=1;shape=label;perimeter=rectanglePerimeter;" vertex="1" parent="1">
          <mxGeometry x="2930" y="2600" width="120" height="60" as="geometry" />
        </mxCell>
        <mxCell id="VH3I_mRAAY6PjUP067Ii-492" value="r_declaracion" style="whiteSpace=wrap;html=1;rounded=1;fillColor=#d5e8d4;strokeColor=#82b366;" vertex="1" parent="1">
          <mxGeometry x="3050" y="2600" width="120" height="60" as="geometry" />
        </mxCell>
        <mxCell id="VH3I_mRAAY6PjUP067Ii-493" value="IDENTIF" style="whiteSpace=wrap;html=1;rounded=1;shape=hexagon;perimeter=hexagonPerimeter2;" vertex="1" parent="1">
          <mxGeometry x="2690" y="2700" width="120" height="60" as="geometry" />
        </mxCell>
        <mxCell id="VH3I_mRAAY6PjUP067Ii-494" value="r_declaracion" style="whiteSpace=wrap;html=1;rounded=1;fillColor=#d5e8d4;strokeColor=#82b366;" vertex="1" parent="1">
          <mxGeometry x="2810" y="2700" width="120" height="60" as="geometry" />
        </mxCell>
        <mxCell id="VH3I_mRAAY6PjUP067Ii-495" value="IDENTIF" style="whiteSpace=wrap;html=1;rounded=1;shape=hexagon;perimeter=hexagonPerimeter2;" vertex="1" parent="1">
          <mxGeometry x="2690" y="2490" width="120" height="60" as="geometry" />
        </mxCell>
        <mxCell id="VH3I_mRAAY6PjUP067Ii-496" value="&lt;b&gt;[&lt;/b&gt;" style="whiteSpace=wrap;html=1;rounded=1;shape=hexagon;perimeter=hexagonPerimeter2;" vertex="1" parent="1">
          <mxGeometry x="2810" y="2490" width="120" height="60" as="geometry" />
        </mxCell>
        <mxCell id="VH3I_mRAAY6PjUP067Ii-497" value="expresion" style="whiteSpace=wrap;html=1;rounded=1;shape=label;perimeter=rectanglePerimeter;" vertex="1" parent="1">
          <mxGeometry x="2930" y="2490" width="120" height="60" as="geometry" />
        </mxCell>
        <mxCell id="VH3I_mRAAY6PjUP067Ii-498" value="&lt;b&gt;]&lt;/b&gt;" style="whiteSpace=wrap;html=1;rounded=1;shape=hexagon;perimeter=hexagonPerimeter2;" vertex="1" parent="1">
          <mxGeometry x="3050" y="2490" width="120" height="60" as="geometry" />
        </mxCell>
        <mxCell id="VH3I_mRAAY6PjUP067Ii-499" value="r_declaracion" style="whiteSpace=wrap;html=1;rounded=1;fillColor=#d5e8d4;strokeColor=#82b366;" vertex="1" parent="1">
          <mxGeometry x="3170" y="2490" width="120" height="60" as="geometry" />
        </mxCell>
        <mxCell id="VH3I_mRAAY6PjUP067Ii-503" value="expresion" style="whiteSpace=wrap;html=1;rounded=1;shape=label;perimeter=rectanglePerimeter;" vertex="1" parent="1">
          <mxGeometry x="2930" y="2490" width="120" height="60" as="geometry" />
        </mxCell>
        <mxCell id="VH3I_mRAAY6PjUP067Ii-504" value="expresion" style="whiteSpace=wrap;html=1;rounded=1;shape=label;perimeter=rectanglePerimeter;" vertex="1" parent="1">
          <mxGeometry x="2930" y="2600" width="120" height="60" as="geometry" />
        </mxCell>
        <mxCell id="VH3I_mRAAY6PjUP067Ii-505" value="expresion" style="whiteSpace=wrap;html=1;rounded=1;shape=label;perimeter=rectanglePerimeter;" vertex="1" parent="1">
          <mxGeometry x="2930" y="2490" width="120" height="60" as="geometry" />
        </mxCell>
        <mxCell id="VH3I_mRAAY6PjUP067Ii-506" value="expresion" style="whiteSpace=wrap;html=1;rounded=1;shape=label;perimeter=rectanglePerimeter;" vertex="1" parent="1">
          <mxGeometry x="2930" y="2600" width="120" height="60" as="geometry" />
        </mxCell>
        <mxCell id="VH3I_mRAAY6PjUP067Ii-507" value="expresion" style="whiteSpace=wrap;html=1;rounded=1;shape=label;perimeter=rectanglePerimeter;fillColor=#d5e8d4;strokeColor=#82b366;" vertex="1" parent="1">
          <mxGeometry x="2930" y="2490" width="120" height="60" as="geometry" />
        </mxCell>
        <mxCell id="VH3I_mRAAY6PjUP067Ii-508" value="expresion" style="whiteSpace=wrap;html=1;rounded=1;shape=label;perimeter=rectanglePerimeter;fillColor=#d5e8d4;strokeColor=#82b366;" vertex="1" parent="1">
          <mxGeometry x="2930" y="2600" width="120" height="60" as="geometry" />
        </mxCell>
        <mxCell id="VH3I_mRAAY6PjUP067Ii-534" style="edgeStyle=orthogonalEdgeStyle;rounded=0;orthogonalLoop=1;jettySize=auto;html=1;exitX=1;exitY=0.5;exitDx=0;exitDy=0;" edge="1" parent="1" source="VH3I_mRAAY6PjUP067Ii-512" target="VH3I_mRAAY6PjUP067Ii-527">
          <mxGeometry relative="1" as="geometry" />
        </mxCell>
        <mxCell id="VH3I_mRAAY6PjUP067Ii-535" style="edgeStyle=orthogonalEdgeStyle;rounded=0;orthogonalLoop=1;jettySize=auto;html=1;exitX=1;exitY=0.5;exitDx=0;exitDy=0;entryX=0;entryY=0.5;entryDx=0;entryDy=0;" edge="1" parent="1" source="VH3I_mRAAY6PjUP067Ii-512" target="VH3I_mRAAY6PjUP067Ii-513">
          <mxGeometry relative="1" as="geometry" />
        </mxCell>
        <mxCell id="VH3I_mRAAY6PjUP067Ii-512" value="sentencia" style="whiteSpace=wrap;html=1;rounded=1;shape=label;perimeter=rectanglePerimeter;fillColor=#d5e8d4;strokeColor=#82b366;" vertex="1" parent="1">
          <mxGeometry x="2740" y="3070" width="120" height="60" as="geometry" />
        </mxCell>
        <mxCell id="VH3I_mRAAY6PjUP067Ii-513" value="PRINTF" style="whiteSpace=wrap;html=1;rounded=1;shape=hexagon;perimeter=hexagonPerimeter2;" vertex="1" parent="1">
          <mxGeometry x="2940" y="3000" width="120" height="60" as="geometry" />
        </mxCell>
        <mxCell id="VH3I_mRAAY6PjUP067Ii-514" value="&lt;b&gt;(&lt;/b&gt;" style="whiteSpace=wrap;html=1;rounded=1;shape=hexagon;perimeter=hexagonPerimeter2;" vertex="1" parent="1">
          <mxGeometry x="3055" y="3000" width="120" height="60" as="geometry" />
        </mxCell>
        <mxCell id="VH3I_mRAAY6PjUP067Ii-515" value="&lt;b&gt;)&lt;/b&gt;" style="whiteSpace=wrap;html=1;rounded=1;shape=hexagon;perimeter=hexagonPerimeter2;" vertex="1" parent="1">
          <mxGeometry x="3650" y="3000" width="120" height="60" as="geometry" />
        </mxCell>
        <mxCell id="VH3I_mRAAY6PjUP067Ii-516" value="expresion" style="whiteSpace=wrap;html=1;rounded=1;shape=label;perimeter=rectanglePerimeter;fillColor=#d5e8d4;strokeColor=#82b366;" vertex="1" parent="1">
          <mxGeometry x="3410" y="3000" width="120" height="60" as="geometry" />
        </mxCell>
        <mxCell id="VH3I_mRAAY6PjUP067Ii-517" value="&lt;b&gt;STRING&lt;/b&gt;" style="whiteSpace=wrap;html=1;rounded=1;shape=hexagon;perimeter=hexagonPerimeter2;" vertex="1" parent="1">
          <mxGeometry x="3170" y="3000" width="120" height="60" as="geometry" />
        </mxCell>
        <mxCell id="VH3I_mRAAY6PjUP067Ii-518" value="&lt;b&gt;,&lt;/b&gt;" style="whiteSpace=wrap;html=1;rounded=1;shape=hexagon;perimeter=hexagonPerimeter2;" vertex="1" parent="1">
          <mxGeometry x="3290" y="3000" width="120" height="60" as="geometry" />
        </mxCell>
        <mxCell id="VH3I_mRAAY6PjUP067Ii-519" value="r_sentencia" style="whiteSpace=wrap;html=1;rounded=1;shape=label;perimeter=rectanglePerimeter;fillColor=#d5e8d4;strokeColor=#82b366;" vertex="1" parent="1">
          <mxGeometry x="3530" y="3000" width="120" height="60" as="geometry" />
        </mxCell>
        <mxCell id="VH3I_mRAAY6PjUP067Ii-527" value="PUTS" style="whiteSpace=wrap;html=1;rounded=1;shape=hexagon;perimeter=hexagonPerimeter2;" vertex="1" parent="1">
          <mxGeometry x="2940" y="3130" width="120" height="60" as="geometry" />
        </mxCell>
        <mxCell id="VH3I_mRAAY6PjUP067Ii-528" value="&lt;b&gt;(&lt;/b&gt;" style="whiteSpace=wrap;html=1;rounded=1;shape=hexagon;perimeter=hexagonPerimeter2;" vertex="1" parent="1">
          <mxGeometry x="3055" y="3130" width="120" height="60" as="geometry" />
        </mxCell>
        <mxCell id="VH3I_mRAAY6PjUP067Ii-529" value="&lt;b&gt;)&lt;/b&gt;" style="whiteSpace=wrap;html=1;rounded=1;shape=hexagon;perimeter=hexagonPerimeter2;" vertex="1" parent="1">
          <mxGeometry x="3290" y="3130" width="120" height="60" as="geometry" />
        </mxCell>
        <mxCell id="VH3I_mRAAY6PjUP067Ii-531" value="&lt;b&gt;STRING&lt;/b&gt;" style="whiteSpace=wrap;html=1;rounded=1;shape=hexagon;perimeter=hexagonPerimeter2;" vertex="1" parent="1">
          <mxGeometry x="3170" y="3130" width="120" height="60" as="geometry" />
        </mxCell>
        <mxCell id="VH3I_mRAAY6PjUP067Ii-543" value="expresion" style="whiteSpace=wrap;html=1;rounded=1;shape=label;perimeter=rectanglePerimeter;fillColor=#d5e8d4;strokeColor=#82b366;" vertex="1" parent="1">
          <mxGeometry x="3070" y="3330" width="120" height="60" as="geometry" />
        </mxCell>
        <mxCell id="VH3I_mRAAY6PjUP067Ii-544" value="&lt;b&gt;,&lt;/b&gt;" style="whiteSpace=wrap;html=1;rounded=1;shape=hexagon;perimeter=hexagonPerimeter2;" vertex="1" parent="1">
          <mxGeometry x="2950" y="3330" width="120" height="60" as="geometry" />
        </mxCell>
        <mxCell id="VH3I_mRAAY6PjUP067Ii-545" value="r_sentencia" style="whiteSpace=wrap;html=1;rounded=1;shape=label;perimeter=rectanglePerimeter;fillColor=#d5e8d4;strokeColor=#82b366;" vertex="1" parent="1">
          <mxGeometry x="3190" y="3330" width="120" height="60" as="geometry" />
        </mxCell>
        <mxCell id="VH3I_mRAAY6PjUP067Ii-548" style="edgeStyle=orthogonalEdgeStyle;rounded=0;orthogonalLoop=1;jettySize=auto;html=1;exitX=1;exitY=0.5;exitDx=0;exitDy=0;entryX=0;entryY=0.5;entryDx=0;entryDy=0;" edge="1" parent="1" source="VH3I_mRAAY6PjUP067Ii-546" target="VH3I_mRAAY6PjUP067Ii-547">
          <mxGeometry relative="1" as="geometry" />
        </mxCell>
        <mxCell id="VH3I_mRAAY6PjUP067Ii-549" style="edgeStyle=orthogonalEdgeStyle;rounded=0;orthogonalLoop=1;jettySize=auto;html=1;exitX=1;exitY=0.5;exitDx=0;exitDy=0;entryX=0;entryY=0.5;entryDx=0;entryDy=0;" edge="1" parent="1" source="VH3I_mRAAY6PjUP067Ii-546" target="VH3I_mRAAY6PjUP067Ii-544">
          <mxGeometry relative="1" as="geometry" />
        </mxCell>
        <mxCell id="VH3I_mRAAY6PjUP067Ii-546" value="r_sentencia" style="whiteSpace=wrap;html=1;rounded=1;shape=label;perimeter=rectanglePerimeter;fillColor=#d5e8d4;strokeColor=#82b366;" vertex="1" parent="1">
          <mxGeometry x="2740" y="3380" width="120" height="60" as="geometry" />
        </mxCell>
        <mxCell id="VH3I_mRAAY6PjUP067Ii-547" value="Lambda" style="rounded=1;whiteSpace=wrap;html=1;shape=hexagon;perimeter=hexagonPerimeter2;" vertex="1" parent="1">
          <mxGeometry x="2950" y="3440" width="120" height="60" as="geometry" />
        </mxCell>
        <mxCell id="VH3I_mRAAY6PjUP067Ii-573" style="edgeStyle=orthogonalEdgeStyle;rounded=0;orthogonalLoop=1;jettySize=auto;html=1;exitX=1;exitY=0.5;exitDx=0;exitDy=0;entryX=0;entryY=0.5;entryDx=0;entryDy=0;" edge="1" parent="1" source="VH3I_mRAAY6PjUP067Ii-550" target="VH3I_mRAAY6PjUP067Ii-551">
          <mxGeometry relative="1" as="geometry">
            <Array as="points">
              <mxPoint x="1520" y="3580" />
              <mxPoint x="1520" y="3520" />
            </Array>
          </mxGeometry>
        </mxCell>
        <mxCell id="VH3I_mRAAY6PjUP067Ii-574" style="edgeStyle=orthogonalEdgeStyle;rounded=0;orthogonalLoop=1;jettySize=auto;html=1;exitX=1;exitY=0.5;exitDx=0;exitDy=0;entryX=0;entryY=0.5;entryDx=0;entryDy=0;" edge="1" parent="1" source="VH3I_mRAAY6PjUP067Ii-550" target="VH3I_mRAAY6PjUP067Ii-562">
          <mxGeometry relative="1" as="geometry">
            <Array as="points">
              <mxPoint x="1520" y="3580" />
              <mxPoint x="1520" y="3640" />
            </Array>
          </mxGeometry>
        </mxCell>
        <mxCell id="VH3I_mRAAY6PjUP067Ii-550" value="incremento" style="whiteSpace=wrap;html=1;rounded=1;shape=label;perimeter=rectanglePerimeter;fillColor=#d5e8d4;strokeColor=#82b366;" vertex="1" parent="1">
          <mxGeometry x="1360" y="3550" width="120" height="60" as="geometry" />
        </mxCell>
        <mxCell id="VH3I_mRAAY6PjUP067Ii-551" value="IDENTIF" style="whiteSpace=wrap;html=1;rounded=1;shape=hexagon;perimeter=hexagonPerimeter2;" vertex="1" parent="1">
          <mxGeometry x="1555" y="3490" width="120" height="60" as="geometry" />
        </mxCell>
        <mxCell id="VH3I_mRAAY6PjUP067Ii-552" value="&lt;b&gt;=&lt;/b&gt;" style="whiteSpace=wrap;html=1;rounded=1;shape=hexagon;perimeter=hexagonPerimeter2;" vertex="1" parent="1">
          <mxGeometry x="1675" y="3490" width="120" height="60" as="geometry" />
        </mxCell>
        <mxCell id="VH3I_mRAAY6PjUP067Ii-553" value="expresion" style="whiteSpace=wrap;html=1;rounded=1;shape=label;perimeter=rectanglePerimeter;" vertex="1" parent="1">
          <mxGeometry x="1795" y="3490" width="120" height="60" as="geometry" />
        </mxCell>
        <mxCell id="VH3I_mRAAY6PjUP067Ii-554" value="expresion" style="whiteSpace=wrap;html=1;rounded=1;shape=label;perimeter=rectanglePerimeter;" vertex="1" parent="1">
          <mxGeometry x="1795" y="3490" width="120" height="60" as="geometry" />
        </mxCell>
        <mxCell id="VH3I_mRAAY6PjUP067Ii-555" value="expresion" style="whiteSpace=wrap;html=1;rounded=1;shape=label;perimeter=rectanglePerimeter;" vertex="1" parent="1">
          <mxGeometry x="1795" y="3490" width="120" height="60" as="geometry" />
        </mxCell>
        <mxCell id="VH3I_mRAAY6PjUP067Ii-556" value="expresion" style="whiteSpace=wrap;html=1;rounded=1;shape=label;perimeter=rectanglePerimeter;fillColor=#d5e8d4;strokeColor=#82b366;" vertex="1" parent="1">
          <mxGeometry x="1795" y="3490" width="120" height="60" as="geometry" />
        </mxCell>
        <mxCell id="VH3I_mRAAY6PjUP067Ii-557" value="&lt;b&gt;+&lt;/b&gt;" style="whiteSpace=wrap;html=1;rounded=1;shape=hexagon;perimeter=hexagonPerimeter2;" vertex="1" parent="1">
          <mxGeometry x="1915" y="3490" width="120" height="60" as="geometry" />
        </mxCell>
        <mxCell id="VH3I_mRAAY6PjUP067Ii-558" value="expresion" style="whiteSpace=wrap;html=1;rounded=1;shape=label;perimeter=rectanglePerimeter;" vertex="1" parent="1">
          <mxGeometry x="2035" y="3490" width="120" height="60" as="geometry" />
        </mxCell>
        <mxCell id="VH3I_mRAAY6PjUP067Ii-559" value="expresion" style="whiteSpace=wrap;html=1;rounded=1;shape=label;perimeter=rectanglePerimeter;" vertex="1" parent="1">
          <mxGeometry x="2035" y="3490" width="120" height="60" as="geometry" />
        </mxCell>
        <mxCell id="VH3I_mRAAY6PjUP067Ii-560" value="expresion" style="whiteSpace=wrap;html=1;rounded=1;shape=label;perimeter=rectanglePerimeter;" vertex="1" parent="1">
          <mxGeometry x="2035" y="3490" width="120" height="60" as="geometry" />
        </mxCell>
        <mxCell id="VH3I_mRAAY6PjUP067Ii-561" value="expresion" style="whiteSpace=wrap;html=1;rounded=1;shape=label;perimeter=rectanglePerimeter;fillColor=#d5e8d4;strokeColor=#82b366;" vertex="1" parent="1">
          <mxGeometry x="2035" y="3490" width="120" height="60" as="geometry" />
        </mxCell>
        <mxCell id="VH3I_mRAAY6PjUP067Ii-562" value="IDENTIF" style="whiteSpace=wrap;html=1;rounded=1;shape=hexagon;perimeter=hexagonPerimeter2;" vertex="1" parent="1">
          <mxGeometry x="1560" y="3610" width="120" height="60" as="geometry" />
        </mxCell>
        <mxCell id="VH3I_mRAAY6PjUP067Ii-563" value="&lt;b&gt;=&lt;/b&gt;" style="whiteSpace=wrap;html=1;rounded=1;shape=hexagon;perimeter=hexagonPerimeter2;" vertex="1" parent="1">
          <mxGeometry x="1680" y="3610" width="120" height="60" as="geometry" />
        </mxCell>
        <mxCell id="VH3I_mRAAY6PjUP067Ii-564" value="expresion" style="whiteSpace=wrap;html=1;rounded=1;shape=label;perimeter=rectanglePerimeter;" vertex="1" parent="1">
          <mxGeometry x="1800" y="3610" width="120" height="60" as="geometry" />
        </mxCell>
        <mxCell id="VH3I_mRAAY6PjUP067Ii-565" value="expresion" style="whiteSpace=wrap;html=1;rounded=1;shape=label;perimeter=rectanglePerimeter;" vertex="1" parent="1">
          <mxGeometry x="1800" y="3610" width="120" height="60" as="geometry" />
        </mxCell>
        <mxCell id="VH3I_mRAAY6PjUP067Ii-566" value="expresion" style="whiteSpace=wrap;html=1;rounded=1;shape=label;perimeter=rectanglePerimeter;" vertex="1" parent="1">
          <mxGeometry x="1800" y="3610" width="120" height="60" as="geometry" />
        </mxCell>
        <mxCell id="VH3I_mRAAY6PjUP067Ii-567" value="expresion" style="whiteSpace=wrap;html=1;rounded=1;shape=label;perimeter=rectanglePerimeter;fillColor=#d5e8d4;strokeColor=#82b366;" vertex="1" parent="1">
          <mxGeometry x="1800" y="3610" width="120" height="60" as="geometry" />
        </mxCell>
        <mxCell id="VH3I_mRAAY6PjUP067Ii-568" value="&lt;b&gt;-&lt;/b&gt;" style="whiteSpace=wrap;html=1;rounded=1;shape=hexagon;perimeter=hexagonPerimeter2;" vertex="1" parent="1">
          <mxGeometry x="1920" y="3610" width="120" height="60" as="geometry" />
        </mxCell>
        <mxCell id="VH3I_mRAAY6PjUP067Ii-569" value="expresion" style="whiteSpace=wrap;html=1;rounded=1;shape=label;perimeter=rectanglePerimeter;" vertex="1" parent="1">
          <mxGeometry x="2040" y="3610" width="120" height="60" as="geometry" />
        </mxCell>
        <mxCell id="VH3I_mRAAY6PjUP067Ii-570" value="expresion" style="whiteSpace=wrap;html=1;rounded=1;shape=label;perimeter=rectanglePerimeter;" vertex="1" parent="1">
          <mxGeometry x="2040" y="3610" width="120" height="60" as="geometry" />
        </mxCell>
        <mxCell id="VH3I_mRAAY6PjUP067Ii-571" value="expresion" style="whiteSpace=wrap;html=1;rounded=1;shape=label;perimeter=rectanglePerimeter;" vertex="1" parent="1">
          <mxGeometry x="2040" y="3610" width="120" height="60" as="geometry" />
        </mxCell>
        <mxCell id="VH3I_mRAAY6PjUP067Ii-572" value="expresion" style="whiteSpace=wrap;html=1;rounded=1;shape=label;perimeter=rectanglePerimeter;fillColor=#d5e8d4;strokeColor=#82b366;" vertex="1" parent="1">
          <mxGeometry x="2040" y="3610" width="120" height="60" as="geometry" />
        </mxCell>
      </root>
    </mxGraphModel>
  </diagram>
</mxfile>
